<?xml version="1.0" encoding="UTF-8"?>
<svg width="46px" height="46px" viewBox="0 0 46 46" version="1.1" xmlns="http://www.w3.org/2000/svg" xmlns:xlink="http://www.w3.org/1999/xlink">
    <title>icon-acces</title>
    <g id="Home-page" stroke="none" stroke-width="1" fill="none" fill-rule="evenodd">
        <g id="Desktop-HD" transform="translate(-159.000000, -2388.000000)" fill="#FFFFFF" fill-rule="nonzero">
            <g id="icon-acces" transform="translate(159.000000, 2388.000000)">
                <path d="M39.75,34 C37.2461538,34 35.6115385,35.678 34.8153846,38 L23.8846154,38 C22.2942308,38 21,39.346 21,41 L21,44 C21,45.104 21.8596154,46 22.9230769,46 C23.9865385,46 24.8461538,45.104 24.8461538,44 L24.8461538,42 L34.8153846,42 C35.6115385,44.322 37.7269231,46 40.2307692,46 C43.4115385,46 46,43.308 46,40 C46,36.692 42.9307692,34 39.75,34 Z M40.2307692,42 C39.1692308,42 38.3076923,41.102 38.3076923,40 C38.3076923,38.898 39.1692308,38 40.2307692,38 C41.2923077,38 42.1538462,38.898 42.1538462,40 C42.1538462,41.102 41.2923077,42 40.2307692,42 Z" id="Shape"></path>
                <path d="M36.2727273,0 L5.72727273,0 C2.56390909,0 0,2.686 0,6 C0,9.314 2.56390909,12 5.72727273,12 L36.2727273,12 C39.4360909,12 42,9.314 42,6 C42,2.686 39.4360909,0 36.2727273,0 Z M5.72727273,8 C4.67345455,8 3.81818182,7.104 3.81818182,6 C3.81818182,4.896 4.67345455,4 5.72727273,4 C6.78109091,4 7.63636364,4.896 7.63636364,6 C7.63636364,7.104 6.78109091,8 5.72727273,8 Z M13.3636364,8 C12.3098182,8 11.4545455,7.104 11.4545455,6 C11.4545455,4.896 12.3098182,4 13.3636364,4 C14.4174545,4 15.2727273,4.896 15.2727273,6 C15.2727273,7.104 14.4174545,8 13.3636364,8 Z" id="Shape"></path>
                <path d="M36.2727273,15 L5.72727273,15 C2.56390909,15 0,17.686 0,21 C0,24.314 2.56390909,27 5.72727273,27 L36.2727273,27 C39.4360909,27 42,24.314 42,21 C42,17.686 39.4360909,15 36.2727273,15 Z M5.72727273,23 C4.67345455,23 3.81818182,22.104 3.81818182,21 C3.81818182,19.896 4.67345455,19 5.72727273,19 C6.78109091,19 7.63636364,19.896 7.63636364,21 C7.63636364,22.104 6.78109091,23 5.72727273,23 Z M13.3636364,23 C12.3098182,23 11.4545455,22.104 11.4545455,21 C11.4545455,19.896 12.3098182,19 13.3636364,19 C14.4174545,19 15.2727273,19.896 15.2727273,21 C15.2727273,22.104 14.4174545,23 13.3636364,23 Z" id="Shape"></path>
                <path d="M36.5384615,31 L5.76923077,31 C2.57692308,31 0,33.68 0,37 C0,40.32 2.57692308,43 5.76923077,43 L17.3076923,43 L17.3076923,42 C17.3076923,38.14 20.3269231,35 24.0384615,35 L32.6346154,35 C33.9615385,33.02 35.8269231,31.7 38,31.2 C37.5384615,31.06 37.0384615,31 36.5384615,31 L36.5384615,31 Z M5.76923077,39 C4.71153846,39 3.84615385,38.1 3.84615385,37 C3.84615385,35.9 4.71153846,35 5.76923077,35 C6.82692308,35 7.69230769,35.9 7.69230769,37 C7.69230769,38.1 6.82692308,39 5.76923077,39 Z M13.4615385,39 C12.4038462,39 11.5384615,38.1 11.5384615,37 C11.5384615,35.9 12.4038462,35 13.4615385,35 C14.5192308,35 15.3846154,35.9 15.3846154,37 C15.3846154,38.1 14.5192308,39 13.4615385,39 Z" id="Shape"></path>
            </g>
        </g>
    </g>
</svg>