<?xml version="1.0" encoding="UTF-8"?>
<svg width="69px" height="46px" viewBox="0 0 69 46" version="1.1" xmlns="http://www.w3.org/2000/svg" xmlns:xlink="http://www.w3.org/1999/xlink">
    <title>icon-live</title>
    <g id="Home-page" stroke="none" stroke-width="1" fill="none" fill-rule="evenodd">
        <g id="Desktop-HD" transform="translate(-441.000000, -2388.000000)" fill="#FFFFFF" fill-rule="nonzero">
            <g id="icon-live" transform="translate(441.000000, 2388.000000)">
                <path d="M33.5292,21 L3.6,21 C1.6117749,21 0,22.5989831 0,24.5714286 L0,42.4285714 C0,44.4010169 1.6117749,46 3.6,46 L44.4,46 C46.388225,46 48,44.4010169 48,42.4285714 L48,35.3559524 C47.9980127,27.4281956 41.5203788,21.0019715 33.5292,21 Z M10.8,42.4285714 L4.8,42.4285714 C4.1372583,42.4285714 3.6,41.895577 3.6,41.2380952 L3.6,25.7619048 C3.6,25.104423 4.1372583,24.5714286 4.8,24.5714286 C5.4627417,24.5714286 6,25.104423 6,25.7619048 L6,40.047619 L10.8,40.047619 C11.4627417,40.047619 12,40.5806135 12,41.2380952 C12,41.895577 11.4627417,42.4285714 10.8,42.4285714 Z M16.8,41.2380952 C16.8,41.895577 16.2627416,42.4285714 15.6,42.4285714 C14.9372584,42.4285714 14.4,41.895577 14.4,41.2380952 L14.4,25.7619048 C14.4,25.104423 14.9372584,24.5714286 15.6,24.5714286 C16.2627416,24.5714286 16.8,25.104423 16.8,25.7619048 L16.8,41.2380952 Z M29.97,26.0297619 L26.37,41.5059524 C26.2442228,42.0463062 25.7590102,42.428927 25.2,42.4285717 L24,42.4285717 C23.4409898,42.428927 22.9557772,42.0463062 22.83,41.5059524 L19.23,26.0297619 C19.0808831,25.3887171 19.4838269,24.7491239 20.13,24.6011905 C20.7761731,24.453257 21.4208831,24.8530029 21.57,25.4940476 L24.6,38.522619 L27.63,25.4940476 C27.7264618,25.0793643 28.0385968,24.7472345 28.4488268,24.6227681 C28.8590569,24.4983018 29.3050584,24.6004083 29.6188268,24.8906252 C29.9325953,25.1808421 30.0664618,25.6150786 29.97,26.0297619 L29.97,26.0297619 Z M39.6,32.9047619 C40.2627416,32.9047619 40.8,33.4377563 40.8,34.0952381 C40.8,34.7527199 40.2627416,35.2857143 39.6,35.2857143 L34.8,35.2857143 L34.8,40.047619 L39.6,40.047619 C40.2627416,40.047619 40.8,40.5806135 40.8,41.2380952 C40.8,41.895577 40.2627416,42.4285714 39.6,42.4285714 L33.6,42.4285714 C32.9372584,42.4285714 32.4,41.895577 32.4,41.2380952 L32.4,25.7619048 C32.4,25.104423 32.9372584,24.5714286 33.6,24.5714286 L39.6,24.5714286 C40.2627416,24.5714286 40.8,25.104423 40.8,25.7619048 C40.8,26.4193865 40.2627416,26.952381 39.6,26.952381 L34.8,26.952381 L34.8,32.9047619 L39.6,32.9047619 Z" id="Shape"></path>
                <path d="M34.3294234,10.632173 C38.4157215,5.88931195 44.8508061,3.78056316 51.0151782,5.16432493 C57.1795503,6.54808669 62.0452825,11.1936126 63.6317044,17.2098707 C65.2181265,23.2261288 63.2606977,29.6098901 58.5562192,33.7625476 C57.8555991,34.3115174 57.5210304,35.1961359 57.6866882,36.0616374 C57.852346,36.9271388 58.4910994,37.6317745 59.3467837,37.8929586 C60.2024681,38.1541425 61.1349426,37.9290992 61.7702494,37.3080794 C67.8221115,31.9717728 70.342467,23.7643609 68.3049627,16.028112 C66.2674584,8.29186306 60.012016,2.31743426 52.0860118,0.537765905 C44.1600076,-1.24190246 35.8857561,1.47009602 30.6327443,7.56936615 C30.0345302,8.21334555 29.8429151,9.12750695 30.1334393,9.95146106 C30.4239634,10.7754151 31.1500168,11.3769717 32.0253679,11.5189794 C32.9007191,11.6609871 33.7849317,11.320663 34.3294234,10.632173 L34.3294234,10.632173 Z" id="Shape"></path>
                <path d="M42.7433963,16.145638 C45.6282929,14.0877763 49.5885578,14.4212012 52.0849018,16.9321235 C54.5812461,19.4430459 54.8733284,23.3868009 52.7738682,26.2346858 C52.2262163,26.9928199 52.1836493,28.0022365 52.6655477,28.8033514 C53.0683634,29.4968663 53.7929554,29.9441129 54.5963635,29.9951264 C55.3997717,30.0461398 56.1756251,29.6941661 56.6637752,29.0572242 C60.1680731,24.3127564 59.683897,17.7370923 55.5220606,13.5514355 C51.3602242,9.36577882 44.7569375,8.81341499 39.9511363,12.2489304 C39.287605,12.7475609 38.9316615,13.5530652 39.0109256,14.3766387 C39.0901897,15.2002123 39.5933053,15.923866 40.3398863,16.288142 C41.1057363,16.6872764 42.0306054,16.6324409 42.7433963,16.145638 L42.7433963,16.145638 Z" id="Shape"></path>
                <circle id="Oval" cx="47.5" cy="21.5" r="2.5"></circle>
            </g>
        </g>
    </g>
</svg>