<?xml version="1.0" encoding="UTF-8"?>
<svg width="34px" height="52px" viewBox="0 0 34 52" version="1.1" xmlns="http://www.w3.org/2000/svg" xmlns:xlink="http://www.w3.org/1999/xlink">
    <title>icon-free</title>
    <g id="Home-page" stroke="none" stroke-width="1" fill="none" fill-rule="evenodd">
        <g id="Desktop-HD" transform="translate(-735.000000, -2385.000000)" fill="#FFFFFF" fill-rule="nonzero">
            <g id="icon-free" transform="translate(735.000000, 2385.000000)">
                <path d="M29.2455285,6.99576271 L23.4406504,6.99576271 L23.4406504,6.44491525 C23.4406504,2.86440678 20.5105691,0 16.9723577,0 C13.4341463,0 10.504065,2.91949153 10.504065,6.44491525 L10.504065,6.99576271 L4.69918699,6.99576271 C2.10081301,6.99576271 0,9.08898305 0,11.6779661 L0,47.3177966 C0,49.9067797 2.10081301,52 4.69918699,52 L29.300813,52 C31.899187,52 34,49.9067797 34,47.3177966 L34,11.6779661 C33.9447154,9.08898305 31.8439024,6.99576271 29.2455285,6.99576271 Z M16.9723577,2.75423729 C19.0178862,2.75423729 20.6764228,4.40677966 20.6764228,6.44491525 L20.6764228,9.47457627 L13.2682927,9.47457627 L13.2682927,6.44491525 C13.2130081,4.40677966 14.9268293,2.75423729 16.9723577,2.75423729 Z M26.4260163,45.279661 L7.51869919,45.279661 L7.51869919,42.5254237 L26.4260163,42.5254237 L26.4260163,45.279661 Z M26.1495935,38.8898305 L7.79512195,38.8898305 C7.46341463,38.8898305 7.24227642,38.6694915 7.24227642,38.3389831 L7.24227642,36.6864407 C7.24227642,35.1991525 8.07154472,33.8220339 9.39837398,33.1059322 L12.9918699,31.1779661 C13.1577236,31.0677966 13.2682927,30.9025424 13.2682927,30.6822034 L13.2682927,29.5254237 C12.6601626,28.6991525 12.2178862,27.7627119 11.9414634,26.7711864 C11.499187,26.3855932 11.2780488,25.8347458 11.2780488,25.2288136 L11.2780488,23.6313559 C11.2780488,23.190678 11.4439024,22.75 11.6650407,22.4194915 L11.6650407,21.4279661 C11.5544715,20.3813559 11.9414634,19.279661 12.604878,18.4533898 C13.5447154,17.4067797 14.9821138,16.8559322 16.9723577,16.8559322 C18.9626016,16.8559322 20.4,17.4067797 21.3398374,18.4533898 C22.0585366,19.279661 22.3902439,20.3262712 22.2796748,21.4279661 L22.2796748,22.4194915 C22.5560976,22.75 22.6666667,23.190678 22.6666667,23.6313559 L22.6666667,25.2288136 C22.6666667,25.9449153 22.2796748,26.6610169 21.6162602,27.0466102 C21.3398374,27.8177966 20.9528455,28.5889831 20.4552846,29.3050847 L20.2894309,29.5254237 L20.2894309,30.6822034 C20.2894309,30.9025424 20.4,31.0677966 20.5658537,31.1779661 L24.3804878,33.1059322 C25.7626016,33.8220339 26.6471545,35.1991525 26.6471545,36.7966102 L26.6471545,38.3389831 C26.702439,38.6694915 26.4260163,38.8898305 26.1495935,38.8898305 Z" id="Shape"></path>
            </g>
        </g>
    </g>
</svg>