<?xml version="1.0" encoding="UTF-8"?>
<svg width="51px" height="38px" viewBox="0 0 51 38" version="1.1" xmlns="http://www.w3.org/2000/svg" xmlns:xlink="http://www.w3.org/1999/xlink">
    <title>icon-webinar</title>
    <g id="Home-page" stroke="none" stroke-width="1" fill="none" fill-rule="evenodd">
        <g id="Desktop-HD" transform="translate(-1027.000000, -2399.000000)" fill="#FFFFFF" fill-rule="nonzero">
            <g id="icon-webinar" transform="translate(1027.000000, 2399.000000)">
                <path d="M37.9165355,36 L14.083363,36 C13.4845528,36 13,36.4472673 13,37 C13,37.5527327 13.4845528,38 14.083363,38 L37.916637,38 C38.5154472,38 39,37.5527327 39,37 C39,36.4472673 38.5153456,36 37.9165355,36 Z" id="Path"></path>
                <path d="M46.7498755,0 L4.2500249,0 C1.90711737,0 0,1.90602167 0,4.2500249 L0,29.7499751 C0,32.0938787 1.90711737,34 4.2500249,34 L46.7499751,34 C49.0928826,34 51,32.0939783 51,29.7499751 L51,4.2500249 C51,1.90602167 49.092783,0 46.7498755,0 Z M33.4728682,17.9181974 L20.7228931,25.3557161 C20.5568446,25.4511417 20.3721692,25.4999502 20.1874938,25.4999502 C20.0049101,25.4999502 19.8222269,25.4532335 19.6582702,25.358804 C19.328265,25.1689489 19.1249626,24.818225 19.1249626,24.4374191 L19.1249626,9.56248132 C19.1249626,9.18167543 19.3283646,8.8309515 19.6582702,8.6410964 C19.9902676,8.4522374 20.3949797,8.45532528 20.7228931,8.64418429 L33.4728682,16.081703 C33.7986898,16.2726538 34,16.622282 34,17 C34,17.3776184 33.7986898,17.7273462 33.4728682,17.9181974 Z" id="Shape"></path>
            </g>
        </g>
    </g>
</svg>