<?xml version="1.0" encoding="UTF-8"?>
<svg width="49px" height="43px" viewBox="0 0 49 43" version="1.1" xmlns="http://www.w3.org/2000/svg" xmlns:xlink="http://www.w3.org/1999/xlink">
    <title>icon-quotes</title>
    <g id="Home-page" stroke="none" stroke-width="1" fill="none" fill-rule="evenodd">
        <g id="Desktop-HD" transform="translate(-811.000000, -2994.000000)" fill="#FF451D" fill-rule="nonzero">
            <path d="M821.08,3036.948 C826.009,3036.948 829.507,3033.609 829.507,3028.203 C829.507,3022.956 825.373,3020.094 821.08,3020.094 C820.603,3020.094 820.126,3020.094 819.649,3020.253 C819.649,3011.349 823.624,3005.784 831.733,3000.537 L827.917,2994.336 C816.946,3000.696 811.063,3009.918 811.063,3022.638 C811.063,3031.86 814.72,3036.948 821.08,3036.948 Z M849.223,3036.948 C854.152,3036.948 857.65,3033.609 857.65,3028.203 C857.65,3022.956 853.516,3020.094 849.223,3020.094 C848.746,3020.094 848.269,3020.094 847.792,3020.253 C847.792,3011.349 851.767,3005.784 859.876,3000.537 L856.06,2994.336 C845.089,3000.696 839.206,3009.918 839.206,3022.638 C839.206,3031.86 842.863,3036.948 849.223,3036.948 Z" id="icon-quotes"></path>
        </g>
    </g>
</svg>