<?xml version="1.0" encoding="UTF-8"?>
<svg width="23px" height="19px" viewBox="0 0 23 19" version="1.1" xmlns="http://www.w3.org/2000/svg" xmlns:xlink="http://www.w3.org/1999/xlink">
    <title>icon-next-black</title>
    <g id="Home-page" stroke="none" stroke-width="1" fill="none" fill-rule="evenodd">
        <g id="Desktop-HD" transform="translate(-1268.000000, -2007.000000)" fill="#FFFFFF">
            <g id="icon-next-black" transform="translate(1268.000000, 2007.000000)">
                <path d="M14.0774375,0.261948695 C13.6945234,-0.0995311527 13.0874792,-0.0852809616 12.7228333,0.294724135 C12.3577083,0.674729231 12.3730417,1.2760873 12.7558958,1.63804215 L20.1072708,8.54985985 L0.958333333,8.54985985 C0.429333333,8.54985985 0,8.97546556 0,9.49987259 C0,10.0242796 0.429333333,10.4498853 0.958333333,10.4498853 L20.0766042,10.4498853 L12.7558958,17.362178 C12.3725625,17.7241329 12.3577083,18.325491 12.7228333,18.7054961 C12.9110859,18.9011987 13.1636667,19 13.4166667,19 C13.6543333,19 13.8919401,18.9130738 14.0774375,18.7377965 L22.4384167,10.8431906 C22.8006667,10.4845608 23,10.0076544 23,9.49987259 C23,8.99209078 22.8006667,8.51518438 22.4216458,8.14040436 L14.0774375,0.261948695 Z" id="Fill-1"></path>
            </g>
        </g>
    </g>
</svg>