<?xml version="1.0" encoding="UTF-8"?>
<svg width="55px" height="44px" viewBox="0 0 55 44" version="1.1" xmlns="http://www.w3.org/2000/svg" xmlns:xlink="http://www.w3.org/1999/xlink">
    <title>icon-webinar</title>
    <g id="Home-page" stroke="none" stroke-width="1" fill="none" fill-rule="evenodd">
        <g id="Desktop-HD" transform="translate(-1028.000000, -2361.000000)" fill="#FF451D" fill-rule="nonzero">
            <g id="icon-webinar" transform="translate(1028.000000, 2361.000000)">
                <path d="M24.4334697,26.8789925 C24.7018506,27.0403358 25.0320283,27.0403358 25.3004092,26.8789925 L34.5664746,21.2852781 C34.834738,21.1233616 35,20.8240929 35,20.5002183 C35,20.1763436 34.834738,19.8770749 34.5664746,19.7151584 L34.5664746,19.7151584 L25.3004092,14.121444 C25.0321638,13.9595106 24.70167,13.9595192 24.4334323,14.1214666 C24.1651947,14.2834139 24,14.5826938 24,14.9065605 L24,26.0936494 C24.0004487,26.4174571 24.1655519,26.7165845 24.4334697,26.8789925 L24.4334697,26.8789925 Z M25.3004092,15.6915637 L33.2660654,20.5001616 L25.3004092,25.3088728 L25.3004092,15.6915637 Z" id="Shape"></path>
                <path d="M5.33002066,38 L4.66997934,38 C4.29995997,38 4,38.2238576 4,38.5 C4,38.7761424 4.29995997,39 4.66997934,39 L5.33002066,39 C5.70004003,39 6,38.7761424 6,38.5 C6,38.2238576 5.70004003,38 5.33002066,38 L5.33002066,38 Z" id="Path"></path>
                <path d="M8.33002066,38 L7.66997934,38 C7.29995997,38 7,38.2238576 7,38.5 C7,38.7761424 7.29995997,39 7.66997934,39 L8.33002066,39 C8.70004003,39 9,38.7761424 9,38.5 C9,38.2238576 8.70004003,38 8.33002066,38 Z" id="Path"></path>
                <path d="M50.3461989,38.1714395 L14.9263049,38.1714395 L14.9263049,37.833073 C14.9263049,37.3729795 14.6335881,37 14.2725038,37 C13.9114194,37 13.6187026,37.3729795 13.6187026,37.833073 L13.6187026,38.1714395 L12.6538011,38.1714395 C12.2927167,38.1714395 12,38.544419 12,39.0045125 C12,39.464606 12.2927167,39.8375855 12.6538011,39.8375855 L13.6187026,39.8375855 L13.6187026,40.166927 C13.6187026,40.6270205 13.9114194,41 14.2725038,41 C14.6335881,41 14.9263049,40.6270205 14.9263049,40.166927 L14.9263049,39.8375855 L50.3461989,39.8375855 C50.7072833,39.8375855 51,39.464606 51,39.0045125 C51,38.544419 50.7072833,38.1714395 50.3461989,38.1714395 L50.3461989,38.1714395 Z" id="Path"></path>
                <path d="M51.8902642,0 L3.10973577,0 C1.39357186,0.00122082126 0.00234219225,1.37964317 0,3.08110831 L0,40.9188917 C0.00240367327,42.6203315 1.39359734,43.9987182 3.10973577,44 L51.8902642,44 C53.6064027,43.9987182 54.9975963,42.6203315 55,40.9188917 L55,3.08110831 C54.9976578,1.37964317 53.6064281,0.00122082126 51.8902642,0 Z M3.10973577,1.32997481 L51.8902642,1.32997481 C52.8658649,1.33046245 53.6569339,2.11386408 53.6585366,3.08110831 L53.6585366,9.87062972 L1.34146341,9.87062972 L1.34146341,3.08110831 C1.34306607,2.11386408 2.13413509,1.33046245 3.10973577,1.32997481 Z M53.6585366,11.200272 L53.6585366,33.103073 L1.34146341,33.103073 L1.34146341,11.200272 L53.6585366,11.200272 Z M51.8902642,42.6700252 L3.10973577,42.6700252 C2.13413509,42.6695376 1.34306607,41.8861359 1.34146341,40.9188917 L1.34146341,34.4330479 L53.6585366,34.4330479 L53.6585366,40.9188917 C53.6569339,41.8861359 52.8658649,42.6695376 51.8902642,42.6700252 Z" id="Shape"></path>
                <path d="M5.50162124,8.00000006 C6.88212155,7.99910456 8.00059611,6.87942017 8,5.49891945 C7.99940246,4.11841873 6.87996019,2.99970185 5.49945962,3.00000006 C4.11895905,3.00029839 3,4.11949889 3,5.50000006 C3.0020261,6.88050459 4.12111561,7.99886894 5.50162124,8.00000006 Z M5.50162124,4.29729285 C6.16571976,4.2981881 6.70343054,4.83712445 6.70281454,5.5012234 C6.70219748,6.16532235 6.16348695,6.70325938 5.49938792,6.70292174 C4.83528889,6.70258377 4.2971259,6.16409897 4.29718498,5.49999974 C4.29843658,4.83560696 4.83722747,4.29758968 5.50162124,4.29729285 L5.50162124,4.29729285 Z" id="Shape"></path>
                <path d="M11.5017293,8.00000007 C12.8822155,7.99904487 14.0006358,6.87933408 14,5.49884745 C13.9993626,4.11836081 12.8799101,2.999682 11.4994236,3.00000007 C10.1189371,3.00031827 9,4.11951292 9,5.50000007 C9.00202621,6.88054673 10.1211815,7.9989285 11.5017293,8.00000007 L11.5017293,8.00000007 Z M11.5017293,4.2972928 C12.1658136,4.29824772 12.7034702,4.8372104 12.7028145,5.50129523 C12.7021576,6.16538006 12.1634369,6.70327902 11.499352,6.70292156 C10.835267,6.70256375 10.297126,6.16408485 10.297185,5.4999997 C10.2984961,4.83558945 10.837318,4.2975895 11.5017293,4.2972928 L11.5017293,4.2972928 Z" id="Shape"></path>
                <path d="M19.5017293,8.00000007 C20.8822155,7.99904487 22.0006358,6.87933408 22,5.49884745 C21.9993626,4.11836081 20.8799101,2.999682 19.4994236,3.00000007 C18.1189371,3.00031827 17,4.11951292 17,5.50000007 C17.0020262,6.88054673 18.1211815,7.9989285 19.5017293,8.00000007 L19.5017293,8.00000007 Z M19.5017293,4.2972928 C20.1658136,4.29824772 20.7034702,4.8372104 20.7028145,5.50129523 C20.7021576,6.16538006 20.1634369,6.70327902 19.499352,6.70292156 C18.835267,6.70256375 18.297126,6.16408485 18.297185,5.4999997 C18.2984961,4.83558945 18.837318,4.2975895 19.5017293,4.2972928 L19.5017293,4.2972928 Z" id="Shape"></path>
                <path d="M29.6904124,6 L52.3095876,6 C52.6908918,6 53,5.77614237 53,5.5 C53,5.22385763 52.6908918,5 52.3095876,5 L29.6904124,5 C29.3091082,5 29,5.22385763 29,5.5 C29,5.77614237 29.3091082,6 29.6904124,6 L29.6904124,6 Z" id="Path"></path>
            </g>
        </g>
    </g>
</svg>