<?xml version="1.0" encoding="UTF-8"?>
<svg width="30px" height="31px" viewBox="0 0 30 31" version="1.1" xmlns="http://www.w3.org/2000/svg" xmlns:xlink="http://www.w3.org/1999/xlink">
    <title>icon-facebook</title>
    <g id="Home-page" stroke="none" stroke-width="1" fill="none" fill-rule="evenodd">
        <g id="Desktop-Nosotros" transform="translate(-802.000000, -1326.000000)" fill="#7A7A7A" fill-rule="nonzero">
            <g id="icon-facebook" transform="translate(802.000000, 1326.000000)">
                <path d="M18,29.9519532 C17.6678831,29.9867187 17.3345498,30.0187501 17,30.0480469 C17.3345498,30.0187501 17.6678831,29.9867188 18,29.9519532 Z" id="Path"></path>
                <path d="M18.0896072,29.9732422 C18.029869,29.9919922 17.9701309,30.0091797 17.9103928,30.0267578 C17.9701309,30.0091797 18.029869,29.9919922 18.0896072,29.9732422 Z" id="Path"></path>
                <path d="M17,29.9628907 C16.6683964,29.9910157 16.3347171,30.0160157 16,30.0371094 C16.3347171,30.0160157 16.6683964,29.9910157 17,29.9628907 Z" id="Path"></path>
                <path d="M17.1057434,29.9775391 C17.0354767,29.9935548 16.9647522,30.0083985 16.8942566,30.022461 C16.9647522,30.0083985 17.0354767,29.9935548 17.1057434,29.9775391 Z" id="Path"></path>
                <path d="M18.0791931,29.9716797 C18.0265503,29.9908203 17.9736786,30.009961 17.9208069,30.0283203 C17.9736786,30.009961 18.0265503,29.9908203 18.0791931,29.9716797 Z" id="Path"></path>
                <path d="M19.063858,29.9697266 C19.021286,29.9904296 18.978714,30.009961 18.936142,30.0302735 C18.978714,30.009961 19.021286,29.9904297 19.063858,29.9697266 Z" id="Path"></path>
                <path d="M19.0695801,29.9691407 C19.0233459,29.9898437 18.9768829,30.0109376 18.9304199,30.0308594 C18.9768829,30.0109376 19.0233459,29.9902344 19.0695801,29.9691407 Z" id="Path"></path>
                <path d="M19.0739288,29.9716797 C19.0249481,29.991211 18.9755096,30.0095703 18.9260712,30.0283203 C18.9755096,30.0095703 19.0249481,29.991211 19.0739288,29.9716797 Z" id="Path"></path>
                <path d="M16.1185608,29.9847657 C16.0395966,29.9960938 15.9606323,30.0062501 15.8814392,30.0152344 C15.9606323,30.0062501 16.0395966,29.9960938 16.1185608,29.9847657 Z" id="Path"></path>
                <path d="M30,15 C30,6.71699525 23.2830047,0 15,0 C6.71699525,0 0,6.71699525 0,15 C0,23.2830047 6.71699525,30 15,30 C15.0881195,30 15.1757812,29.9981689 15.2636719,29.9965668 L15.2636719,18.3197021 L12.0410156,18.3197021 L12.0410156,14.5639801 L15.2636719,14.5639801 L15.2636719,11.8002319 C15.2636719,8.5949707 17.2203827,6.85043332 20.0795746,6.85043332 C21.4487457,6.85043332 22.6256561,6.95251465 22.96875,6.99806215 L22.96875,10.3479767 L20.9971618,10.3479767 C19.4416809,10.3479767 19.1404724,11.087265 19.1404724,12.171936 L19.1404724,14.5639801 L22.8598022,14.5639801 L22.3750305,18.3197021 L19.1404724,18.3197021 L19.1404724,29.4204712 C25.4102326,27.6230621 30,21.8467712 30,15 Z" id="Path"></path>
                <path d="M17,29.9800782 C16.667965,29.9972656 16.3344694,30.0109375 16,30.0199219 C16.3344694,30.0109375 16.667965,29.9972656 17,29.9800782 Z" id="Path"></path>
                <path d="M16.1245117,29.9947266 C16.0416565,29.999414 15.9585724,30.0029297 15.8754883,30.0052734 C15.9585724,30.0029297 16.0416565,29.999414 16.1245117,29.9947266 Z" id="Path"></path>
            </g>
        </g>
    </g>
</svg>