<?xml version="1.0" encoding="UTF-8"?>
<svg width="42px" height="52px" viewBox="0 0 42 52" version="1.1" xmlns="http://www.w3.org/2000/svg" xmlns:xlink="http://www.w3.org/1999/xlink">
    <title>icon-live</title>
    <g id="Home-page" stroke="none" stroke-width="1" fill="none" fill-rule="evenodd">
        <g id="Desktop-HD" transform="translate(-443.000000, -2358.000000)" fill="#FF451D" fill-rule="nonzero">
            <g id="icon-live" transform="translate(443.000000, 2358.000000)">
                <path d="M40.1977294,0 L1.80227065,0 C0.80850293,0 -1.13686838e-13,0.7986875 -1.13686838e-13,1.78039063 L-1.13686838e-13,40.3640859 C-1.13686838e-13,41.3457891 0.80850293,42.1444766 1.80227065,42.1444766 L8.99983844,42.1444766 C10.0499464,47.7450391 15.0311223,52 21,52 C27.7295737,52 33.2045491,46.5914922 33.2045491,39.9436172 C33.2045491,33.2957422 27.7295737,27.8872344 21,27.8872344 C16.6521377,27.8872344 12.599342,30.2004219 10.4233547,33.9241094 C10.2100226,34.2890234 10.3366853,34.7557031 10.7060839,34.9663438 C11.0754826,35.1770859 11.5478975,35.0519609 11.7611268,34.6870469 C13.6620957,31.434 17.2022775,29.4133125 21,29.4133125 C26.8778903,29.4133125 31.6597163,34.1371875 31.6597163,39.9436172 C31.6597163,45.7500469 26.8777875,50.4739219 21,50.4739219 C15.1222125,50.4739219 10.3402837,45.7500469 10.3402837,39.9436172 C10.3402837,39.1832187 10.422635,38.42475 10.584973,37.6892344 C10.6758576,37.2775 10.4117371,36.8709453 9.99483988,36.7811641 C9.57855957,36.6912813 9.1664945,36.9522969 9.07560989,37.3641328 C8.88972824,38.2061875 8.79545087,39.0740391 8.79545087,39.9435156 C8.79545087,40.17 8.80233919,40.3948594 8.81488209,40.6182969 L1.80227065,40.6182969 C1.66028914,40.6182969 1.54483279,40.5042422 1.54483279,40.3639844 L1.54483279,11.5979297 L29.0882164,11.5979297 C29.5148806,11.5979297 29.8606328,11.2562734 29.8606328,10.8348906 C29.8606328,10.4135078 29.5148806,10.0718516 29.0882164,10.0718516 L1.54483279,10.0718516 L1.54483279,1.78039063 C1.54483279,1.64013281 1.66028914,1.52607813 1.80227065,1.52607813 L40.1977294,1.52607813 C40.3397109,1.52607813 40.4551672,1.64013281 40.4551672,1.78039063 L40.4551672,10.0718516 L32.8204485,10.0718516 C32.3937844,10.0718516 32.0480322,10.4135078 32.0480322,10.8348906 C32.0480322,11.2562734 32.3937844,11.5979297 32.8204485,11.5979297 L40.4551672,11.5979297 L40.4551672,40.3640859 C40.4551672,40.5043437 40.3397109,40.6183984 40.1977294,40.6183984 L36.332049,40.6183984 C35.9053848,40.6183984 35.5596326,40.9600547 35.5596326,41.3814375 C35.5596326,41.8028203 35.9053848,42.1444766 36.332049,42.1444766 L40.1977294,42.1444766 C41.1914971,42.1444766 42,41.3457891 42,40.3640859 L42,1.78039062 C42,0.7986875 41.1914971,0 40.1977294,0 Z" id="Path"></path>
                <circle id="Oval" cx="6.5" cy="6.5" r="1.5"></circle>
                <circle id="Oval" cx="10.5" cy="6.5" r="1.5"></circle>
                <circle id="Oval" cx="14.5" cy="6.5" r="1.5"></circle>
                <path d="M18.7956289,44.9998041 C19.103856,44.9998041 19.4121855,44.9186812 19.6931739,44.7563331 L26.1024549,41.0548977 C26.6645342,40.7303039 27,40.1490258 27,39.499838 C27,38.8506503 26.6644318,38.2693722 26.1024549,37.9448808 L19.6931739,34.2434454 C19.1311971,33.9188515 18.4600607,33.9188515 17.8980838,34.2434454 C17.3361069,34.5679368 17.0005387,35.1493173 17.0005387,35.7984027 L17.0005387,43.201171 C16.975348,44.1713676 17.8374623,45.0147586 18.7956289,44.9998041 L18.7956289,44.9998041 Z M18.5392167,35.7985051 C18.5392167,35.6696508 18.6196015,35.6039946 18.6674228,35.5763391 C18.6956854,35.560053 18.7410491,35.5404893 18.7963457,35.5404893 C18.834746,35.5404893 18.8780617,35.5499127 18.923835,35.5763391 L25.3331159,39.2777744 C25.444733,39.3422016 25.461322,39.444527 25.461322,39.499838 C25.461322,39.5551491 25.444733,39.6575769 25.3331159,39.7220041 L18.923835,43.4234394 C18.8124226,43.4878665 18.7153464,43.4510949 18.6674228,43.4234394 C18.6194991,43.3957839 18.5392167,43.3301277 18.5392167,43.2012734 L18.5392167,35.7985051 Z" id="Shape"></path>
                <path d="M7.83542536,15 C7.37406774,15 7,15.3348257 7,15.7477841 L7,24.2504071 C7,24.6144953 7.2930049,24.9257319 7.69398239,24.9873423 C7.75291696,24.9963997 10.0960666,25.0034664 11.1692318,24.9981912 C11.6305894,24.995902 12.0025444,24.6591852 12,24.2462268 C11.9974294,23.8332684 11.622472,23.5049122 11.1598912,23.502623 C10.2755391,23.5071019 9.32113258,23.5097893 8.67085073,23.5097893 L8.67085073,15.7476846 C8.67085073,15.3348257 8.29678299,15 7.83542536,15 L7.83542536,15 Z" id="Path"></path>
                <path d="M14,15.7473763 L14,24.2526237 C14,24.6653569 14.4477572,25 15,25 C15.5522428,25 16,24.6653569 16,24.2526237 L16,15.7473763 C16,15.3346431 15.5522428,15 15,15 C14.4476241,15 14,15.3346431 14,15.7473763 Z" id="Path"></path>
                <path d="M34.2594089,16.5064565 C34.6684936,16.5064565 35,16.1691931 35,15.7532283 C35,15.3372634 34.6684936,15 34.2594089,15 L30.7405911,15 C30.3315064,15 30,15.3372634 30,15.7532283 L30,24.2467717 C30,24.6627366 30.3315064,25 30.7405911,25 L34.2594089,25 C34.6684936,25 35,24.6627366 35,24.2467717 C35,23.8308069 34.6684936,23.4935435 34.2594089,23.4935435 L31.4811821,23.4935435 L31.4811821,20.753128 L33.999862,20.753128 C34.4089466,20.753128 34.740453,20.4158646 34.740453,19.9998997 C34.740453,19.5839349 34.4089466,19.2466715 33.999862,19.2466715 L31.4811821,19.2466715 L31.4811821,16.5063563 L34.2594089,16.5063563 L34.2594089,16.5064565 Z" id="Path"></path>
                <path d="M26.4548847,15.5275095 L24.0566927,22.3337202 L21.5417035,15.5024413 C21.3981074,15.1124918 20.9463231,14.9062761 20.5329435,15.0414653 C20.119353,15.1768534 19.9005298,15.6026146 20.0440204,15.9925641 L23.1301233,24.375086 C23.2711872,24.7496166 23.64785,25 24.0688261,25 L24.0756841,25 C24.4995089,24.9973141 24.8757497,24.7412605 25.0138594,24.3581749 L27.9593203,15.9988311 C28.09743,15.607091 27.8724874,15.1841152 27.4569977,15.0538999 C27.0419301,14.9237841 26.5928889,15.1357694 26.4548847,15.5275095 L26.4548847,15.5275095 Z" id="Path"></path>
            </g>
        </g>
    </g>
</svg>