<?xml version="1.0" encoding="UTF-8"?>
<svg width="34px" height="50px" viewBox="0 0 34 50" version="1.1" xmlns="http://www.w3.org/2000/svg" xmlns:xlink="http://www.w3.org/1999/xlink">
    <title>icon-pass-free</title>
    <defs>
        <polygon id="path-1" points="0 -9.86193294e-05 33.9452531 -9.86193294e-05 33.9452531 49.9999901 0 49.9999901"></polygon>
    </defs>
    <g id="Home-page" stroke="none" stroke-width="1" fill="none" fill-rule="evenodd">
        <g id="Desktop-HD" transform="translate(-736.000000, -2355.000000)">
            <g id="icon-pass-free" transform="translate(736.000000, 2355.000000)">
                <path d="M9.73223596,43 C9.32843223,43 9,43.2242667 9,43.5 C9,43.7757333 9.32843223,44 9.73223596,44 L23.2676664,44 C23.6714701,44 24,43.7757333 24,43.5 C24,43.2242667 23.6715678,43 23.267764,43 L9.73223596,43 Z" id="Fill-1" fill="#FF451D"></path>
                <path d="M29,40.5 C29,40.2242667 28.6694408,40 28.2630221,40 L6.73697792,40 C6.33055916,40 6,40.2242667 6,40.5 C6,40.7757333 6.33055916,41 6.73697792,41 L28.2630221,41 C28.6694408,41 29,40.7757333 29,40.5" id="Fill-3" fill="#FF451D"></path>
                <path d="M11.4702999,34.8808136 C11.4702999,32.8267796 13.1220349,31.1557263 15.1523231,31.1557263 L18.8475789,31.1557263 C20.8778671,31.1557263 22.529602,32.8267796 22.529602,34.8808136 L22.529602,35.5125037 L11.4702999,35.5125037 L11.4702999,34.8808136 Z M12.9569692,25.5778136 C12.9569692,23.3224717 14.7706332,21.4875954 17,21.4875954 C19.2293668,21.4875954 21.0430308,23.3224717 21.0430308,25.5778136 C21.0430308,27.8333537 19.2293668,29.66823 17,29.66823 C14.7706332,29.66823 12.9569692,27.8333537 12.9569692,25.5778136 L12.9569692,25.5778136 Z M10.73515,37 L23.26485,37 C23.6701627,37 24,36.6664042 24,36.2562519 L24,34.8808136 C24,32.7720397 22.754754,30.8831178 20.8275828,30.0684657 L20.4770633,29.920311 L20.755048,29.6583134 C21.872476,28.6050668 22.5133307,27.1177689 22.5133307,25.5777144 C22.5133307,22.5021671 20.0400902,20 17,20 C13.9599098,20 11.4866693,22.5021671 11.4866693,25.5777144 C11.4866693,27.1177689 12.127524,28.6050668 13.244952,29.6583134 L13.5228387,29.920311 L13.1724172,30.0684657 C11.245246,30.8831178 10,32.7720397 10,34.8808136 L10,36.2562519 C10,36.6664042 10.3297393,37 10.73515,37 L10.73515,37 Z" id="Fill-5" fill="#FF451D"></path>
                <path d="M33.7637815,26.0740864 C33.6834032,26.0243837 33.5915327,26 33.4999294,26 C33.3830702,26 33.2666786,26.039682 33.1748081,26.1173091 C33.0197307,26.2484468 32.9593968,26.4749816 33.0281494,26.6681141 C33.0977037,26.8635179 33.2914001,27 33.4991277,27 C33.7334475,27 33.9448499,26.8268421 33.9907517,26.5971675 C34.0309075,26.3966197 33.9375671,26.1815085 33.7637815,26.0740864" id="Fill-7" fill="#FF451D"></path>
                <g id="Group-11">
                    <mask id="mask-2" fill="white">
                        <use xlink:href="#path-1"></use>
                    </mask>
                    <g id="Clip-10"></g>
                    <path d="M24.4210898,10.5466371 L24.4210898,16.4240533 L9.52413353,16.4240533 L9.52413353,10.5466371 L11.8498128,10.5466371 L11.8498128,12.924645 C11.8498128,13.3325345 12.1832706,13.6642899 12.5932531,13.6642899 L21.3518711,13.6642899 C21.7618536,13.6642899 22.0953114,13.3325345 22.0953114,12.924645 L22.0953114,10.5466371 L24.4210898,10.5466371 Z M13.3366933,12.1850986 L20.6084309,12.1850986 L20.6084309,1.47918146 L13.3366933,1.47918146 L13.3366933,12.1850986 Z M30.3062618,4.46389546 L22.0954105,4.46389546 L22.0954105,0.739536489 C22.0954105,0.331646943 21.7619528,-0.000108481262 21.3519703,-0.000108481262 L12.5932531,-0.000108481262 C12.1832706,-0.000108481262 11.8498128,0.331646943 11.8498128,0.739536489 L11.8498128,4.46399408 L3.63896152,4.46399408 C1.63246589,4.46399408 -2.97376093e-05,6.08677515 -2.97376093e-05,8.08154832 L-2.97376093e-05,46.3824359 C-2.97376093e-05,48.3772091 1.63246589,49.9999901 3.63896152,49.9999901 L30.3061627,49.9999901 C32.3127574,49.9999901 33.9452531,48.3772091 33.9452531,46.3824359 L33.9452531,30.841213 C33.9452531,30.4333235 33.6116962,30.101568 33.2017137,30.101568 C32.7917312,30.101568 32.4582735,30.4333235 32.4582735,30.841213 L32.4582735,46.3824359 C32.4582735,47.56143 31.4928915,48.5206016 30.3061627,48.5206016 L3.63896152,48.5206016 C2.45233178,48.5206016 1.48685073,47.56143 1.48685073,46.3824359 L1.48685073,8.0814497 C1.48685073,6.90245562 2.45233178,5.9431854 3.63896152,5.9431854 L11.8498128,5.9431854 L11.8498128,9.06734714 L8.78069329,9.06734714 C8.37080991,9.06734714 8.03725306,9.39910256 8.03725306,9.80699211 L8.03725306,17.1636982 C8.03725306,17.5715878 8.37080991,17.9033432 8.78069329,17.9033432 L25.1644309,17.9033432 C25.5744134,17.9033432 25.9078711,17.5715878 25.9078711,17.1636982 L25.9078711,9.80699211 C25.9078711,9.39910256 25.5744134,9.06734714 25.1644309,9.06734714 L22.0954105,9.06734714 L22.0954105,5.94328402 L30.3062618,5.94328402 C31.4929907,5.94328402 32.4583726,6.90255424 32.4583726,8.08154832 L32.4583726,21.9248422 C32.4583726,22.3326331 32.7918303,22.6643886 33.2018128,22.6643886 C33.6117953,22.6643886 33.9452531,22.3326331 33.9452531,21.9247436 L33.9452531,8.0814497 C33.9452531,6.08667653 32.3128566,4.46389546 30.3062618,4.46389546 L30.3062618,4.46389546 Z" id="Fill-9" fill="#FF451D" mask="url(#mask-2)"></path>
                </g>
            </g>
        </g>
    </g>
</svg>