<?xml version="1.0" encoding="UTF-8"?>
<svg width="44px" height="49px" viewBox="0 0 44 49" version="1.1" xmlns="http://www.w3.org/2000/svg" xmlns:xlink="http://www.w3.org/1999/xlink">
    <title>icon-access</title>
    <g id="Home-page" stroke="none" stroke-width="1" fill="none" fill-rule="evenodd">
        <g id="Desktop-HD" transform="translate(-151.000000, -2356.000000)" fill="#FF451D" fill-rule="nonzero">
            <path d="M172.821988,2379.85908 L172.606112,2379.85908 L172.606112,2379.40424 C172.606112,2379.18134 172.316734,2379 171.96105,2379 C171.605378,2379 171.316001,2379.18135 171.316001,2379.40424 L171.316001,2379.85908 L171.100125,2379.85908 C171.02345,2379.85908 170.961062,2379.89818 170.961062,2379.94623 L170.961062,2380.91285 C170.961062,2380.9609 171.02345,2381 171.100125,2381 L172.821999,2381 C172.898674,2381 172.961062,2380.9609 172.961062,2380.91285 L172.961062,2379.94623 C172.961062,2379.89818 172.898663,2379.85908 172.821988,2379.85908 Z M170.961062,2380.39463 C170.961074,2380.17703 171.185383,2380 171.461062,2380 C171.736753,2380 171.961062,2380.17704 171.961062,2380.39463 L171.961062,2381 L170.961062,2381 L170.961062,2380.39463 Z M170.961062,2382 L170.961062,2380 L172.961062,2380 L172.961062,2382 L170.961062,2382 Z M151.730088,2366.26032 C152.129204,2366.26032 152.460177,2366.58514 152.460177,2366.97683 L152.460177,2366.97683 L152.460177,2403.48027 L185.654867,2403.48027 L185.654867,2400.42319 C185.654867,2400.0315 185.985841,2399.70669 186.384956,2399.70669 C186.793805,2399.70669 187.115044,2400.02195 187.105525,2400.42319 L187.105525,2400.42319 L187.105525,2403.49937 C187.105525,2404.29231 186.560177,2404.91327 185.869027,2404.91327 L185.869027,2404.91327 L152.236283,2404.91327 C151.545133,2404.91327 151,2404.29231 151,2403.49937 L151,2403.49937 L151,2366.97683 C151,2366.58514 151.330973,2366.26032 151.730088,2366.26032 Z M174.304425,2397.2037 C174.70354,2397.2037 175.034513,2397.52852 175.034513,2397.9202 C175.034513,2398.31189 174.70354,2398.63671 174.304425,2398.63671 L174.304425,2398.63671 L158.855752,2398.63671 C158.456637,2398.63671 158.125664,2398.31189 158.125664,2397.9202 C158.125664,2397.52852 158.456637,2397.2037 158.855752,2397.2037 L158.855752,2397.2037 Z M186.423894,2371.83949 C189.441593,2371.83949 191.904425,2374.2565 191.904425,2377.21804 L191.904425,2377.21804 L191.904425,2380.17004 L190.444248,2380.17004 L190.444248,2377.21804 C190.444248,2375.03987 188.643363,2373.2725 186.423894,2373.2725 C184.204425,2373.2725 182.40354,2375.03987 182.40354,2377.21804 L182.40354,2377.21804 L182.40354,2383.26533 L193.744248,2383.26533 C194.39646,2383.26533 194.922124,2383.79076 194.922124,2384.42129 L194.922124,2384.42129 L194.922124,2397.28013 C194.922124,2397.9202 194.39646,2398.43609 193.744248,2398.43609 L193.744248,2398.43609 L179.113274,2398.43609 C178.461062,2398.43609 177.935398,2397.9202 177.935398,2397.28013 L177.935398,2397.28013 L177.935398,2384.42129 C177.935398,2383.78121 178.461062,2383.26533 179.113274,2383.26533 L179.113274,2383.26533 L180.943363,2383.26533 L180.943363,2377.21804 C180.943363,2374.2565 183.406195,2371.83949 186.423894,2371.83949 Z M193.461947,2384.69834 L179.395575,2384.69834 L179.395575,2397.01263 L193.461947,2397.01263 L193.461947,2384.69834 Z M186.384956,2388.46236 C187.640708,2388.46236 188.672566,2389.46547 188.653097,2390.70741 C188.653097,2391.29972 188.419469,2391.85381 188.000885,2392.27416 L188.000885,2392.27416 L188.000885,2393.28682 C188.000885,2394.16573 187.270796,2394.88223 186.375221,2394.88223 C185.479646,2394.88223 184.749558,2394.16573 184.749558,2393.28682 L184.749558,2393.28682 L184.749558,2392.27416 C184.340708,2391.86337 184.097345,2391.29972 184.097345,2390.70741 C184.097345,2389.46547 185.129204,2388.46236 186.384956,2388.46236 Z M186.384956,2389.88582 C185.927434,2389.88582 185.557522,2390.24885 185.557522,2390.69785 C185.557522,2390.9558 185.693805,2391.20418 185.907965,2391.35704 C186.102655,2391.49078 186.219469,2391.71051 186.219469,2391.93979 L186.219469,2391.93979 L186.219469,2393.27726 C186.219469,2393.36325 186.297345,2393.43967 186.384956,2393.43967 C186.472566,2393.43967 186.550442,2393.36325 186.550442,2393.27726 L186.550442,2393.27726 L186.550442,2391.93979 C186.550442,2391.71051 186.667257,2391.49078 186.861947,2391.35704 C187.076106,2391.20418 187.212389,2390.96535 187.212389,2390.69785 C187.212389,2390.24885 186.842478,2389.88582 186.384956,2389.88582 Z M174.304425,2390.22019 C174.70354,2390.22019 175.034513,2390.545 175.034513,2390.93669 C175.034513,2391.32838 174.70354,2391.65319 174.304425,2391.65319 L174.304425,2391.65319 L158.855752,2391.65319 C158.456637,2391.65319 158.125664,2391.32838 158.125664,2390.93669 C158.125664,2390.545 158.456637,2390.22019 158.855752,2390.22019 L158.855752,2390.22019 Z M174.304425,2383.22712 C174.70354,2383.22712 175.034513,2383.55193 175.034513,2383.94362 C175.034513,2384.33531 174.70354,2384.66012 174.304425,2384.66012 L174.304425,2384.66012 L158.855752,2384.66012 C158.456637,2384.66012 158.125664,2384.33531 158.125664,2383.94362 C158.125664,2383.55193 158.456637,2383.22712 158.855752,2383.22712 L158.855752,2383.22712 Z M179.259292,2376.23405 C179.658407,2376.23405 179.989381,2376.55886 179.989381,2376.95055 C179.989381,2377.34224 179.658407,2377.66705 179.259292,2377.66705 L179.259292,2377.66705 L158.855752,2377.66705 C158.456637,2377.66705 158.125664,2377.34224 158.125664,2376.95055 C158.125664,2376.55886 158.456637,2376.23405 158.855752,2376.23405 L158.855752,2376.23405 Z M185.878761,2356 C186.569912,2356 187.115044,2356.62097 187.115044,2357.4139 L187.115044,2357.4139 L187.115044,2369.96703 C187.115044,2370.35872 186.784071,2370.68354 186.384956,2370.68354 C185.985841,2370.68354 185.654867,2370.35872 185.654867,2369.96703 L185.654867,2369.96703 L185.654867,2357.43301 L152.460177,2357.43301 L152.460177,2361.76068 C152.460177,2362.15237 152.129204,2362.47719 151.730088,2362.47719 C151.330973,2362.47719 151,2362.15237 151,2361.76068 L151,2361.76068 L151,2357.4139 C151,2356.62097 151.545133,2356 152.236283,2356 L152.236283,2356 Z M179.259292,2369.25053 C179.658407,2369.25053 179.989381,2369.56579 179.989381,2369.96703 C179.989381,2370.35872 179.658407,2370.68354 179.259292,2370.68354 L179.259292,2370.68354 L158.855752,2370.68354 C158.456637,2370.68354 158.125664,2370.35872 158.125664,2369.96703 C158.125664,2369.57534 158.456637,2369.25053 158.855752,2369.25053 L158.855752,2369.25053 Z M179.259292,2362.25746 C179.658407,2362.25746 179.989381,2362.58227 179.989381,2362.97396 C179.989381,2363.36565 179.658407,2363.69047 179.259292,2363.69047 L179.259292,2363.69047 L158.855752,2363.69047 C158.456637,2363.69047 158.125664,2363.36565 158.125664,2362.97396 C158.125664,2362.58227 158.456637,2362.25746 158.855752,2362.25746 L158.855752,2362.25746 Z" id="icon-access"></path>
        </g>
    </g>
</svg>