<?xml version="1.0" encoding="UTF-8"?>
<svg width="30px" height="30px" viewBox="0 0 30 30" version="1.1" xmlns="http://www.w3.org/2000/svg" xmlns:xlink="http://www.w3.org/1999/xlink">
    <title>icon-instagram</title>
    <g id="Home-page" stroke="none" stroke-width="1" fill="none" fill-rule="evenodd">
        <g id="Desktop-Nosotros" transform="translate(-847.000000, -1326.000000)" fill="#7A7A7A" fill-rule="nonzero">
            <g id="icon-instagram" transform="translate(847.000000, 1326.000000)">
                <path d="M18,15 C18,16.6568878 16.6568878,18 15,18 C13.3431122,18 12,16.6568878 12,15 C12,13.3431122 13.3431122,12 15,12 C16.6568878,12 18,13.3431122 18,15 Z" id="Path"></path>
                <path d="M21.6562566,9.96421572 C21.5194399,9.59347197 21.3011685,9.2578967 21.0175518,8.98244821 C20.7421033,8.6988315 20.4067549,8.48056013 20.0357843,8.34374343 C19.7349237,8.22689334 19.2829522,8.08780774 18.4504805,8.04991654 C17.5499409,8.00884885 17.2799378,8 15.0001134,8 C12.7200622,8 12.4500591,8.00862198 11.5497463,8.04968966 C10.7172747,8.08780774 10.2650763,8.22689334 9.9644426,8.34374343 C9.59347197,8.48056013 9.2578967,8.6988315 8.98267509,8.98244821 C8.69905838,9.2578967 8.48078701,9.59324509 8.34374343,9.96421572 C8.22689334,10.2650763 8.08780774,10.7172747 8.04991654,11.5497463 C8.00884885,12.4500591 8,12.7200622 8,15.0001134 C8,17.2799378 8.00884885,17.5499409 8.04991654,18.4504805 C8.08780774,19.2829522 8.22689334,19.7349237 8.34374343,20.0357843 C8.48078701,20.406755 8.6988315,20.7421033 8.98244821,21.0175518 C9.2578967,21.3011685 9.59324503,21.5194399 9.96421566,21.6562566 C10.2650763,21.7733335 10.7172747,21.9124191 11.5497463,21.9503103 C12.4500591,21.9913781 12.7198354,22 14.9998866,22 C17.2801646,22 17.5501677,21.9913781 18.4502537,21.9503103 C19.2827253,21.9124191 19.7349237,21.7733335 20.0357843,21.6562566 C20.7804483,21.3690096 21.3690096,20.7804483 21.6562566,20.0357843 C21.7731067,19.7349237 21.9121923,19.2829522 21.9503103,18.4504805 C21.991378,17.5499409 22,17.2799378 22,15.0001134 C22,12.7200622 21.991378,12.4500591 21.9503103,11.5497463 C21.9124191,10.7172747 21.7733335,10.2650763 21.6562566,9.96421572 L21.6562566,9.96421572 Z M15.0001134,19.3843735 C12.5784808,19.3843735 10.6153996,17.4215192 10.6153996,14.9998866 C10.6153996,12.5782539 12.5784808,10.6153996 15.0001134,10.6153996 C17.4215192,10.6153996 19.3846004,12.5782539 19.3846004,14.9998866 C19.3846004,17.4215192 17.4215192,19.3843735 15.0001134,19.3843735 Z M19.5579469,11.4667034 C18.9920749,11.4667034 18.5332966,11.0079251 18.5332966,10.4420531 C18.5332966,9.87618104 18.9920749,9.41740273 19.5579469,9.41740273 C20.123819,9.41740273 20.5825973,9.87618104 20.5825973,10.4420531 C20.5823704,11.0079251 20.123819,11.4667034 19.5579469,11.4667034 Z" id="Shape"></path>
                <path d="M15,0 C6.71699525,0 0,6.71699525 0,15 C0,23.2830047 6.71699525,30 15,30 C23.2830047,30 30,23.2830047 30,15 C30,6.71699525 23.2830047,0 15,0 Z M23.5613251,18.5511017 C23.5196686,19.4680023 23.3738708,20.0939941 23.1610107,20.6419372 C22.7135467,21.7989349 21.7989349,22.7135467 20.6419372,23.1610107 C20.094223,23.3738708 19.4680023,23.5194397 18.5513306,23.5613251 C17.6328278,23.6032104 17.3394012,23.6132813 15.0002289,23.6132813 C12.6608276,23.6132813 12.36763,23.6032104 11.4488983,23.5613251 C10.5322266,23.5194397 9.90600586,23.3738708 9.35829164,23.1610107 C8.78334047,22.9447174 8.26286314,22.6057434 7.83256529,22.1674347 C7.39448549,21.7373657 7.05551145,21.2166595 6.83921813,20.6419372 C6.62635805,20.094223 6.48056027,19.4680023 6.43890381,18.5513306 C6.39656068,17.6325989 6.38671875,17.3391724 6.38671875,15 C6.38671875,12.6608276 6.39656068,12.3674011 6.43867494,11.4488983 C6.48033141,10.5319977 6.62590025,9.90600586 6.83876039,9.35806277 C7.05505371,8.78334047 7.39425656,8.26263428 7.83256529,7.83256529 C8.26263428,7.39425656 8.78334047,7.05528258 9.35806277,6.83898926 C9.90600586,6.62612918 10.5319977,6.48056027 11.4488983,6.43867494 C12.3674011,6.39678955 12.6608276,6.38671875 15,6.38671875 C17.3391724,6.38671875 17.6325989,6.39678955 18.5511017,6.43890381 C19.4680023,6.48056027 20.0939941,6.62612918 20.6419372,6.83876039 C21.2166595,7.05505371 21.7373657,7.39425656 22.1676636,7.83256529 C22.6057434,8.26286314 22.9449463,8.78334047 23.1610107,9.35806277 C23.3740997,9.90600586 23.5196686,10.5319977 23.561554,11.4488983 C23.6034393,12.3674011 23.6132812,12.6608276 23.6132812,15 C23.6132812,17.3391724 23.6034393,17.6325989 23.5613251,18.5511017 L23.5613251,18.5511017 Z" id="Shape"></path>
            </g>
        </g>
    </g>
</svg>