<?xml version="1.0" encoding="UTF-8"?>
<svg width="193px" height="62px" viewBox="0 0 193 62" version="1.1" xmlns="http://www.w3.org/2000/svg" xmlns:xlink="http://www.w3.org/1999/xlink">
    <title>logo-audiofit-gris</title>
    <defs>
        <polygon id="path-1" points="0 61.966652 192.998797 61.966652 192.998797 0.0829455772 0 0.0829455772"></polygon>
    </defs>
    <g id="Home-page" stroke="none" stroke-width="1" fill="none" fill-rule="evenodd">
        <g id="Desktop-ventas" transform="translate(-385.000000, -1396.000000)">
            <g id="logo-audiofit-gris" transform="translate(385.000000, 1396.000000)">
                <polygon id="Fill-1" fill="#959595" points="35.1461208 0 0 35.2131464 9.48706133 35.2129034 19.175539 25.5052203 15.6489947 35.2129034 22.3549099 35.2129034 18.721655 45.2119275 23.5618315 45.2119275 16.8675575 62 35.1500012 40.1624209 28.6125191 40.1605985 30.4012563 35.2139968 39.2969224 35.2139968 45 28.4045376 24.8275653 28.4045376"></polygon>
                <g id="Group-19">
                    <path d="M191.359981,20.5882685 C190.564879,20.5882685 189.918016,21.2403129 189.918016,22.0416351 C189.918016,22.8430786 190.564879,23.4950017 191.359981,23.4950017 C192.155204,23.4950017 192.802067,22.8430786 192.802067,22.0416351 C192.802067,21.2403129 192.155204,20.5882685 191.359981,20.5882685 M191.359981,23.6931495 C190.456347,23.6931495 189.721286,22.9523388 189.721286,22.0416351 C189.721286,21.1310528 190.456347,20.3901208 191.359981,20.3901208 C192.263616,20.3901208 192.998676,21.1310528 192.998676,22.0416351 C192.998676,22.9523388 192.263616,23.6931495 191.359981,23.6931495" id="Fill-2" fill="#959595"></path>
                    <path d="M191.965248,21.8062589 C191.965248,21.8665278 191.957066,21.9240076 191.940582,21.9786984 C191.923977,22.0333891 191.901236,22.0837142 191.872117,22.1296739 C191.842878,22.1756335 191.807503,22.2173488 191.765871,22.254456 C191.724239,22.2918058 191.678155,22.3223647 191.627859,22.3460114 L191.965248,22.8741225 L191.627859,22.8741225 L191.328131,22.4055528 L191.134771,22.4055528 L191.250402,22.1202151 L191.373012,22.1202151 C191.457961,22.1202151 191.531118,22.0892925 191.592484,22.0274471 C191.62076,21.997252 191.642779,21.9631764 191.658542,21.925099 C191.674304,21.8871429 191.682125,21.8474891 191.682125,21.8062589 C191.682125,21.7650286 191.674304,21.7253748 191.658542,21.6874187 C191.642779,21.6492201 191.62076,21.6159933 191.592484,21.5873747 C191.531118,21.5256506 191.457961,21.4947279 191.373012,21.4947279 L191.03791,21.4947279 L191.03791,21.6517667 L191.03791,22.1202151 L191.03791,22.4055528 L191.03791,22.8741225 L190.754666,22.8741225 L190.754666,22.4055528 L190.754666,21.6517667 L190.754666,21.209269 L191.373012,21.209269 C191.454833,21.209269 191.5316,21.2251548 191.603072,21.2569263 C191.674665,21.2885766 191.737113,21.3313833 191.790778,21.3852252 C191.844202,21.4393096 191.886676,21.5022463 191.918081,21.5743993 C191.949606,21.6465522 191.965248,21.7237983 191.965248,21.8062589" id="Fill-4" fill="#959595"></path>
                    <polygon id="Fill-6" fill="#959595" points="95.7875605 40.3462567 92.0537805 40.3462567 90.5260243 36.9252367 88.9985087 33.5042167 84.9818466 24.5522789 80.9649439 33.5042167 86.1133753 33.5042167 87.6408909 36.9252367 79.4374283 36.9252367 77.9099127 40.3462567 74.1760125 40.3462567 83.1148965 20.3902057 86.8486764 20.3902057"></polygon>
                    <path d="M109.716493,26.0918774 L109.716493,40.3296555 L106.321907,40.3296555 L106.321907,38.9041799 C105.812936,39.3295792 105.237185,39.6762772 104.596338,39.9440313 C103.95513,40.2119067 103.2386,40.3462688 102.446626,40.3462688 C101.522296,40.3462688 100.683155,40.1751633 99.9289627,39.8330734 C99.17453,39.4913473 98.5288704,39.0245965 97.9913822,38.4326998 C97.4537738,37.8412882 97.0388959,37.1478922 96.7466285,36.3527546 C96.4540001,35.5582233 96.3081671,34.707546 96.3081671,33.8013292 L96.3081671,26.0918774 L99.7026329,26.0918774 L99.7026329,33.8013292 C99.7026329,34.6706813 100.032441,35.4284692 100.692781,36.0754205 C101.333627,36.7043032 102.107191,37.0183807 103.01239,37.0183807 C103.936239,37.0183807 104.718948,36.7043032 105.360276,36.0754205 C106.001123,35.4470228 106.321907,34.6888712 106.321907,33.8013292 L106.321907,26.0918774 L109.716493,26.0918774 Z" id="Fill-8" fill="#959595"></path>
                    <path d="M126.383391,20.3617325 L126.383391,40.3308803 L122.988805,40.3308803 L122.988805,32.9966237 C122.988805,31.8576985 122.592698,30.905037 121.800724,30.1390031 C121.00875,29.3545368 120.056264,28.962243 118.943626,28.962243 C117.812218,28.962243 116.850346,29.3545368 116.058372,30.1390031 C115.266158,30.9233481 114.870171,31.8760096 114.870171,32.9966237 C114.870171,34.0989268 115.266158,35.0417658 116.058372,35.8259895 C116.435348,36.2184046 116.873929,36.5125946 117.373756,36.7086808 C117.873102,36.9048884 118.396512,37.0028709 118.943626,37.0028709 C119.490499,37.0028709 119.990326,36.9094965 120.442986,36.7226264 L121.659223,39.7204299 C120.791565,40.1499522 119.792272,40.364592 118.660744,40.364592 C117.623429,40.364592 116.666491,40.1728714 115.789568,39.7904001 C114.912645,39.4079288 114.1534,38.879939 113.512553,38.2074007 C112.871105,37.5352262 112.371278,36.75076 112.013193,35.8542444 C111.654747,34.9577288 111.475705,34.0050673 111.475705,32.9966237 C111.475705,31.9696265 111.654747,31.0076276 112.013193,30.1109908 C112.371278,29.2145965 112.871105,28.4301302 113.512553,27.7575919 C114.1534,27.0854174 114.912645,26.5580339 115.789568,26.1749563 C116.666491,25.7921213 117.623429,25.6004006 118.660744,25.6004006 C119.566063,25.6004006 120.376687,25.7404622 121.093458,26.0205854 C121.810109,26.3008299 122.44157,26.6558952 122.988805,27.0854174 L122.988805,20.3617325 L126.383391,20.3617325 Z" id="Fill-10" fill="#959595"></path>
                    <mask id="mask-2" fill="white">
                        <use xlink:href="#path-1"></use>
                    </mask>
                    <g id="Clip-13"></g>
                    <path d="M128.363049,40.3462325 L131.757514,40.3462325 L131.757514,26.091841 L128.363049,26.091841 L128.363049,40.3462325 Z M128.363049,23.8112014 L131.757514,23.8112014 L131.757514,20.3901814 L128.363049,20.3901814 L128.363049,23.8112014 Z" id="Fill-12" fill="#959595" mask="url(#mask-2)"></path>
                    <path d="M140.781167,29.3388087 C139.711846,29.3388087 138.802917,29.7159443 138.0545,30.4703367 C137.306084,31.2246079 136.931755,32.1406472 136.931755,33.2183334 C136.931755,34.2781935 137.306084,35.1848954 138.0545,35.9391666 C138.41078,36.3164235 138.825056,36.5992145 139.297329,36.7879036 C139.769361,36.9764714 140.264013,37.0708159 140.781167,37.0708159 C141.297719,37.0708159 141.787679,36.9764714 142.251408,36.7879036 C142.714416,36.5992145 143.133505,36.3164235 143.507472,35.9391666 C144.25625,35.1848954 144.630217,34.2781935 144.630217,33.2183334 C144.630217,32.1406472 144.25625,31.2246079 143.507472,30.4703367 C142.72344,29.7159443 141.814391,29.3388087 140.781167,29.3388087 M140.781167,26.1058714 C141.760846,26.1058714 142.67892,26.2903162 143.534425,26.6583569 C144.38981,27.0267613 145.138346,27.5338935 145.779674,28.1803597 C146.421363,28.8270684 146.924679,29.5813396 147.290104,30.4434158 C147.655047,31.3056132 147.83806,32.2307474 147.83806,33.2183334 C147.83806,34.187972 147.655047,35.1041326 147.290104,35.9662088 C146.924679,36.8285275 146.421363,37.5826774 145.779674,38.2291436 C145.138346,38.8758523 144.38981,39.3835908 143.534425,39.751389 C142.67892,40.1190659 141.760846,40.3036319 140.781167,40.3036319 C139.800645,40.3036319 138.883053,40.1190659 138.027548,39.751389 C137.172404,39.3835908 136.423747,38.8758523 135.782298,38.2291436 C135.140609,37.5826774 134.637053,36.8285275 134.271869,35.9662088 C133.906444,35.1041326 133.724033,34.187972 133.724033,33.2183334 C133.724033,32.2307474 133.906444,31.3056132 134.271869,30.4434158 C134.637053,29.5813396 135.140609,28.8270684 135.782298,28.1803597 C136.423747,27.5338935 137.172404,27.0267613 138.027548,26.6583569 C138.883053,26.2903162 139.800645,26.1058714 140.781167,26.1058714" id="Fill-14" fill="#959595" mask="url(#mask-2)"></path>
                    <polygon id="Fill-15" fill="#959595" mask="url(#mask-2)" points="153.888983 23.811165 153.888983 28.6576606 161.271955 28.6576606 162.120602 32.0788018 153.888983 32.0788018 153.888983 40.3461961 150.494517 40.3461961 150.494517 20.390145 163.817895 20.390145 163.817895 23.811165"></polygon>
                    <polygon id="Fill-16" fill="#959595" mask="url(#mask-2)" points="165.793979 40.3462325 169.188445 40.3462325 169.188445 20.4184363 165.793979 20.4184363"></polygon>
                    <polygon id="Fill-17" fill="#959595" mask="url(#mask-2)" points="186.237275 23.811165 180.438251 23.811165 180.438251 40.3461961 177.043785 40.3461961 177.043785 23.811165 171.216605 23.811165 171.216605 20.390145 177.043785 20.390145 180.438251 20.390145 186.237275 20.390145"></polygon>
                    <polygon id="Fill-18" fill="#959595" mask="url(#mask-2)" points="58.8196378 50.2977615 60.1731646 50.2977615 60.1731646 10.5885365 58.8196378 10.5885365"></polygon>
                </g>
            </g>
        </g>
    </g>
</svg>