<?xml version="1.0" encoding="UTF-8"?>
<svg width="127px" height="34px" viewBox="0 0 127 34" version="1.1" xmlns="http://www.w3.org/2000/svg" xmlns:xlink="http://www.w3.org/1999/xlink">
    <title>logo-natiss-gris</title>
    <defs>
        <polygon id="path-1" points="0.0430768946 0.109574586 5.47165619 0.109574586 5.47165619 5.51817127 0.0430768946 5.51817127"></polygon>
    </defs>
    <g id="Home-page" stroke="none" stroke-width="1" fill="none" fill-rule="evenodd">
        <g id="Desktop-ventas" transform="translate(-675.000000, -1410.000000)">
            <g id="logo-natiss-gris" transform="translate(675.000000, 1410.000000)">
                <polygon id="Fill-1" fill="#959595" points="4.57987305 16.7803943 0 31.99975 0 32 9.0190325 30.8293669 12.8942541 17.9511524 16.2764365 17.5121494 12.4009741 30.3902388 21.4201269 29.2196057 26 14"></polygon>
                <polygon id="Fill-2" fill="#959595" points="76 0 43.7968997 4.08995633 42 9.93262633 51.1936232 8.76494074 52.250298 5.2621335 54.5791576 4.9661884 48.1099257 26 57.3107939 24.831441 63.7810082 3.79775421 66.0803964 3.50567686 65.0021092 7.01122895 74.2029775 5.84266999 75.2811419 2.3371179"></polygon>
                <path d="M28.5798519,13.7311403 L26.8182315,19.4812323 L35.8372222,18.3310911 L36.8941944,14.8811587 L40.2763611,14.4499325 L38.8670648,19.0500061 L26.4659074,20.6312508 L24,28.6812569 L36.4009167,27.0998895 L35.6963889,29.3999263 L42.9538796,34 L50,11 L28.5798519,13.7311403 Z M34.78025,21.7811464 L38.1555556,21.3507797 L37.4391111,23.65229 L34.0758426,24.0811832 L34.78025,21.7811464 Z" id="Fill-3" fill="#959595"></path>
                <g id="Group-15" transform="translate(60.000000, 2.000000)">
                    <path d="M23.0705867,11.3956354 L24.4987974,6.842 L27.9266495,6.41512707 L26.8554,9.83035359 L35.997925,8.69170166 L37.7815109,3.0000221 L16.0721468,5.70371271 L13.2156033,14.8108619 L25.7841505,13.2455801 L24.7130229,16.6605635 C24.7130229,16.6605635 12.962583,18.0731823 12.1443538,18.2258453 L11.4303094,20.5027845 L33.1396736,17.7990939 L35.6391338,9.83035359 L23.0705867,11.3956354 Z" id="Fill-4" fill="#959595"></path>
                    <path d="M47.0668081,8.40681989 L48.4951409,3.85330608 L51.922871,3.4263116 L50.8516214,6.84153812 L59.9942684,5.70300773 L61.7778543,0.0112066298 L40.0684902,2.71489724 L37.2119468,11.8220464 L49.7804939,10.2567646 L48.7093664,13.6718696 C48.7093664,13.6718696 36.9588044,15.0843669 36.1406972,15.2371514 L35.4266529,17.5139691 L57.136017,14.8104 L59.6353553,6.84153812 L47.0668081,8.40681989 Z" id="Fill-6" fill="#959595"></path>
                    <polygon id="Fill-8" fill="#959595" points="4.64474085 7.12677238 0.00448946396 21.9257227 9.14372052 20.7875569 13.7855579 5.98848508"></polygon>
                    <g id="Group-12" transform="translate(60.510166, 8.508287)">
                        <mask id="mask-2" fill="white">
                            <use xlink:href="#path-1"></use>
                        </mask>
                        <g id="Clip-11"></g>
                        <path d="M2.75737264,5.0169116 C1.53814159,5.0169116 0.546311645,4.02861326 0.546311645,2.81387293 C0.546311645,1.59925414 1.53814159,0.610955801 2.75737264,0.610955801 C3.9764817,0.610955801 4.96843364,1.59925414 4.96843364,2.81387293 C4.96843364,4.02861326 3.9764817,5.0169116 2.75737264,5.0169116 M2.75737264,0.109574586 C1.2606,0.109574586 0.0430768946,1.32273481 0.0430768946,2.81387293 C0.0430768946,4.3051326 1.2606,5.51817127 2.75737264,5.51817127 C4.25414529,5.51817127 5.47166839,4.3051326 5.47166839,2.81387293 C5.47166839,1.32273481 4.25414529,0.109574586 2.75737264,0.109574586" id="Fill-10" fill="#959595" mask="url(#mask-2)"></path>
                    </g>
                    <polygon id="Fill-13" fill="#959595" points="62.4330965 10.0531613 62.4330965 12.3600011 62.8545937 12.3600011 62.8545937 10.4731061 63.4215105 10.4731061 62.9525567 11.4936144 63.5344791 11.4936144 63.5344791 12.3600011 63.9559763 12.3600011 63.9559763 11.0736696 63.6091409 11.0736696 64.0778506 10.0531613"></polygon>
                </g>
            </g>
        </g>
    </g>
</svg>