<?xml version="1.0" encoding="UTF-8"?>
<svg width="122px" height="94px" viewBox="0 0 122 94" version="1.1" xmlns="http://www.w3.org/2000/svg" xmlns:xlink="http://www.w3.org/1999/xlink">
    <title>logo-emotionme-gris</title>
    <defs>
        <polygon id="path-1" points="0.034266313 0.0467183024 31.9874971 0.0467183024 31.9874971 32 0.034266313 32"></polygon>
    </defs>
    <g id="Home-page" stroke="none" stroke-width="1" fill="none" fill-rule="evenodd">
        <g id="Desktop-ventas" transform="translate(-899.000000, -1380.000000)">
            <g id="logo-emotionme-gris" transform="translate(899.000000, 1380.000000)">
                <path d="M8.57147742,82.4165527 C6.55499383,82.4133456 4.53851024,82.4151179 2.52202666,82.4150335 L2.033469,82.4150335 L2.033469,78.258421 C2.21246752,78.258421 2.36451819,78.2585054 2.51648359,78.258421 C3.9223767,78.2580835 5.3282698,78.2638224 6.73407763,78.2545388 C7.34620312,78.2504034 7.69533125,77.8652177 7.61116186,77.3254176 C7.55180837,76.9448738 7.2292017,76.7149777 6.72367372,76.7133741 C5.30362446,76.7088167 3.88331937,76.6968324 2.46361123,76.7186911 C2.07670494,76.7246833 1.98741888,76.5991857 1.99492334,76.2378842 C2.01769257,75.1421643 2.00251308,74.0456849 2.00609476,72.949543 C2.00652115,72.8172093 2.03116649,72.6849599 2.04634597,72.5343122 C2.2644871,72.5343122 2.43401976,72.5343966 2.6036377,72.5343122 C4.62012129,72.5338902 6.63669016,72.5370973 8.65308847,72.5305987 C9.18991348,72.5289108 9.48958037,72.2521746 9.49802289,71.7916229 C9.50697708,71.3069337 9.22300134,71.000912 8.70945722,71.0004056 C6.19051566,70.9980425 3.67165938,71.0065666 1.15280309,71.0114616 C1.11698633,71.0040347 1.07997568,71 1.04202697,71 C0.74389508,71 0.5,71.241442 0.5,71.5364922 L0.5,83.4634914 C0.5,83.7585416 0.74389508,84 1.04202697,84 C2.80199433,83.9913072 4.56187642,83.9817704 6.32184378,83.9742591 C7.1028197,83.9708832 7.88413674,83.9831207 8.66485683,83.9664946 C9.22641246,83.9545103 9.52428851,83.6351539 9.49844928,83.1226139 C9.47568005,82.6681387 9.15546116,82.417481 8.57147742,82.4165527" id="Fill-1" fill="#959595"></path>
                <path d="M69.3432896,78.3485396 C69.3451586,81.3047477 67.2501226,83.4783027 64.4037505,83.47313 C61.575231,83.4679387 59.4926918,81.30084 59.4937116,78.3637458 C59.4945621,75.4020159 61.5791415,73.2605723 64.4520374,73.2700553 C67.2659349,73.2793465 69.341333,75.4341274 69.3432896,78.3485396 M90.0398019,6.83487589 C90.5579501,6.59641857 91.0304469,6.36059474 91.5171406,6.15858138 C92.7435239,5.64938538 94.0148785,5.35944779 95.3527974,5.44626766 C96.071914,5.49290573 96.7918807,5.61251667 97.508447,5.59153378 C98.5676966,5.56061164 98.7819269,5.13194914 98.1335403,4.30529145 C96.9381864,2.7812714 95.4222523,1.76610755 93.4285506,1.59110859 C93.0832318,1.5607811 92.6416795,1.56273497 92.4217534,1.35885269 C91.5616019,0.561757928 90.4751484,0.35447761 89.417429,0.0633507035 C88.7652169,-0.116150654 88.4301846,0.0803408936 88.2149341,0.722739979 C88.0848658,1.11096582 87.9604932,1.50369406 87.8720807,1.90287858 C87.6144943,3.06662164 87.2255644,4.14405455 86.2859267,4.96688945 C85.6009849,5.56664316 85.0364201,6.31548578 84.3113527,6.85466946 C83.3733302,7.55245657 82.3632175,8.17412762 81.3221605,8.70795939 C79.9016098,9.43624389 78.7972188,10.4671237 77.9692018,11.8043366 C77.4036169,12.7175593 76.6506656,13.4096547 75.7465628,13.9767023 C75.273386,14.2734359 74.7696048,14.6021112 74.444859,15.0390989 C73.5787566,16.204456 72.477426,17.1294869 71.4674834,18.1477939 C71.3198175,18.2967129 71.1454579,18.4346733 70.9583465,18.5265053 C70.0930092,18.9511751 69.3949756,19.5822757 68.731967,20.2637522 C68.6501004,20.3479386 68.5135711,20.3771617 68.4072211,20.4400254 C68.1380731,20.5989686 67.8002353,20.7049874 67.6156743,20.9335904 C66.2818358,22.5858864 64.7001874,23.908148 62.7419358,24.7632642 C62.4347874,24.8973168 62.2469959,24.8396351 62.0064119,24.593872 C61.7086148,24.2896627 61.3314165,24.0566422 60.966885,23.8271047 C60.7549501,23.6937318 60.4978738,23.6336714 60.265961,23.5300313 C59.2331501,23.0687476 58.2044198,22.5986291 57.1682935,22.1451609 C57.0085559,22.0752463 56.8191491,22.0567269 56.6416441,22.0472124 C56.3660351,22.032346 56.0692582,22.1111805 55.8160074,22.0354892 C54.8552867,21.7481851 53.9102932,21.4090609 52.9559484,21.0997545 C51.5319123,20.638131 50.1009051,20.1977453 48.6810345,19.723804 C47.9050449,19.4649584 47.1662055,19.0243178 46.3741487,18.9022433 C45.3560448,18.745254 44.4922378,18.3752926 43.6672813,17.790915 C42.4839991,16.9525341 41.2243762,16.2414946 39.764465,16.0083042 C39.1387766,15.9084019 38.4878396,15.9535958 37.8685271,15.8310966 C36.6209759,15.5843141 35.3822659,15.2874954 34.1490817,14.9751308 C32.551196,14.5703395 31.2456666,13.7452959 30.4037927,12.2750498 C30.2154911,11.9462047 29.9763523,11.640721 29.7270971,11.3534169 C29.1978973,10.7432992 28.8829278,10.7348041 28.3502426,11.335917 C27.3839961,12.4265173 26.4518394,13.5475301 25.4772617,14.6304848 C24.4867018,15.7313641 23.7134326,16.9177042 23.5094888,18.4345883 C23.4446246,18.9174495 23.7245691,19.1017081 23.9758646,19.3377019 C24.2227395,19.5697029 24.5338835,19.5299459 24.8054968,19.3614032 C25.4430869,18.9656167 25.9167738,18.3353656 26.724898,18.1729394 C27.2193278,18.0735468 27.6617303,17.7249081 28.1559051,17.6110738 C28.9537428,17.42724 28.9636042,17.4700552 29.1716286,18.2581452 C29.2753433,18.6507035 29.478692,18.7162007 29.7671377,18.4234598 C29.9947149,18.1925631 30.1860769,17.9264117 30.398777,17.6804787 C30.7508967,17.2732239 31.1750216,17.1321204 31.6908745,17.3438181 C32.6583111,17.7410488 33.6428352,18.1013258 34.589954,18.5419663 C36.0502053,19.2213191 37.4671004,19.9949674 38.9357679,20.6544416 C40.2597449,21.2488434 41.6293734,21.7413041 42.9762187,22.2854149 C43.1315356,22.3481087 43.2708703,22.451494 43.4154757,22.5394182 C44.1615411,22.9933112 44.8771722,23.509728 45.6596227,23.8883544 C46.8145959,24.4470768 47.749643,25.2028854 48.4394304,26.2943352 C49.03851,27.2421329 49.9202546,27.9015222 50.8808053,28.4657664 C51.2340302,28.6733016 51.5915907,28.9490524 51.5449191,29.4229088 C51.4927217,29.9530877 51.7299902,30.248717 52.1865897,30.4346746 C52.4480017,30.5411181 52.698107,30.6787387 52.9647897,30.7684469 C53.7416294,31.029756 54.5377669,31.2394999 55.2981993,31.5404811 C55.6436031,31.6771672 56.0996925,31.9280274 56.1889551,32.2227222 C56.3151129,32.6395765 55.9510915,33.0427537 55.5858799,33.3068662 C55.0213152,33.7153104 54.6849227,34.2740328 54.4445937,34.9041989 C54.2538268,35.4043052 54.1094764,35.9244599 53.8880201,36.4099545 C53.5542629,37.1414672 53.1898164,37.8606619 52.8012266,38.5646504 C52.6193009,38.8942601 52.3809272,39.2066248 52.1138195,39.4722664 C51.7035515,39.8803707 51.2592787,40.2580627 50.8021692,40.6135824 C50.6424316,40.7377807 50.3989572,40.8246855 50.1988389,40.8157657 C48.5776599,40.7430476 47.0173495,41.0182038 45.4859432,41.5352153 C44.8723265,41.7424106 44.2426426,41.9579312 43.6047975,42.0274211 C41.4018813,42.2674075 39.2401959,42.6830725 37.1435447,43.3997187 C35.6885642,43.8970216 34.221512,44.3720673 32.8804475,45.1526816 C32.7436632,45.2323656 32.5562117,45.2324505 32.3902683,45.2536882 C31.7542084,45.3350713 31.1764668,45.5832979 30.8822403,46.1541683 C30.611222,46.6801846 30.2040144,46.9149041 29.6876515,47.0758012 C29.4462174,47.1509828 29.2702425,47.1542959 29.2044432,46.8668218 C29.1485904,46.6230126 29.0091707,46.5914958 28.7950254,46.6809492 C28.6395384,46.7459366 28.4650088,46.7666647 28.3118172,46.8355599 C28.0339129,46.9604378 27.9043546,47.1412134 28.027792,47.4781289 C28.0900208,47.6479458 28.0243915,47.8660999 28.0098545,48.0619118 C27.9996531,48.2008066 27.9461805,48.3437791 27.9667534,48.4763875 C28.141113,49.5990143 28.5200966,50.6428916 29.2644617,51.5181412 C29.6323937,51.9507114 29.7898359,52.4243979 29.7380636,52.9799772 C29.6737945,53.6685046 30.0302499,54.2146543 30.6215084,54.3364739 C31.2146372,54.4586334 31.850187,54.1358198 32.0426542,53.5937478 C32.2648756,52.968084 32.1280062,52.2759886 31.4533509,52.0390604 C31.0524343,51.8982967 30.8700835,51.3217346 31.1418669,51.0619546 C31.5392981,50.6818841 31.6262654,50.2278212 31.6699615,49.7262708 C31.6918096,49.4753257 31.7672153,49.2281184 31.8286789,48.9818456 C31.900174,48.695391 32.0834599,48.546557 32.3769214,48.4619458 C33.4633749,48.1487317 34.5539939,47.8422286 35.6201295,47.4676799 C36.8031566,47.0520999 38.0396563,46.9926342 39.2575384,46.9334234 C39.9444354,46.9001226 40.5598373,46.7875626 41.166313,46.5118968 C41.9437478,46.1585858 42.7284087,46.0862076 43.5613563,46.336558 C44.3169431,46.5637168 45.0806909,46.7736306 45.8958711,46.677806 C47.0335868,46.5440082 48.1755531,46.4437661 49.3170944,46.3449682 C49.5524076,46.3245799 49.8066785,46.3308663 50.0300051,46.3983173 C50.9773789,46.6840923 51.6447232,47.3952167 52.3831375,47.9961598 C52.4141669,48.0213902 52.4423909,48.0642904 52.4489368,48.1029431 C52.5460205,48.6679519 52.9780515,48.8965549 53.434396,49.12159 C53.9516091,49.3766127 54.0809123,50.4401137 53.6550022,50.8228177 C53.6055252,50.867332 53.5235736,50.9240792 53.4727364,50.9112516 C53.0724999,50.8103299 52.9475322,51.1088475 52.8960149,51.371346 C52.8320859,51.6976426 52.7555751,52.1029436 52.8909992,52.3691798 C53.1393193,52.8570531 53.0329693,53.331844 53.0408754,53.8140256 C53.0639137,55.2059469 53.4951796,56.432044 54.5454179,57.3789922 C55.5954013,58.3257706 57.2720931,58.2022519 58.2005943,57.1331442 C58.5157338,56.7703187 58.8137859,56.3914374 59.1009565,56.00593 C59.7397367,55.1480953 59.9479311,54.1517056 59.9923924,53.1100371 C60.0076946,52.7519688 59.9947727,52.3927962 59.9947727,52.0340483 C60.0331982,52.0128106 60.0716236,51.9915729 60.110219,51.9703351 C60.2735271,52.1071061 60.4555378,52.2270569 60.5958926,52.3842161 C60.8309508,52.6474791 61.0807161,52.9116766 61.2490399,53.2169054 C61.4826529,53.6406407 61.7064895,54.0875676 61.823381,54.5525042 C61.9354269,54.9980719 61.92191,55.4788943 61.9354269,55.9450202 C61.9846488,57.6386023 62.1458316,59.3019419 62.997992,60.8246877 C63.2395961,61.2564934 63.2169829,61.7217697 63.0944806,62.2211964 C62.828563,63.306105 62.6518231,64.4132707 62.828393,65.5378514 C62.9916161,66.577566 63.0493392,67.6122686 62.8760847,68.6604784 C62.7773858,69.2575986 62.73624,69.8678862 62.7191526,70.4736715 C62.6995998,71.1717134 62.4228007,71.440923 61.7358187,71.3061058 C61.4328359,71.2466402 61.14371,71.1189589 60.845913,71.03044 C60.5072251,70.9296882 60.1868999,70.9914475 60.0668629,71.3390668 C59.9336491,71.7244893 60.2671512,71.8363697 60.5502412,71.9447671 C60.8138634,72.0456039 61.0763805,72.1489892 61.4074173,72.2777748 C57.044941,74.3308694 57.1529913,80.2005553 59.2413113,82.6937807 C61.4718564,85.3568231 65.957005,85.8092718 68.7094388,83.5487271 C70.1847372,82.3370717 70.898838,80.7224939 70.9985571,78.8480512 C71.1468181,76.0597062 70.1274391,73.841382 67.5668774,72.3716456 C67.8841422,72.3186362 68.116055,72.3288303 68.2917748,72.2342799 C68.4200579,72.1652148 68.505495,71.9654951 68.5412,71.8084208 C68.5514865,71.7636517 68.329095,71.6363102 68.1984316,71.5982522 C68.0829003,71.5645266 67.946371,71.6021599 67.819108,71.6085312 C67.4340036,71.6277301 67.0488992,71.647014 66.6637098,71.6662129 C66.6544435,71.6167715 66.6451772,71.5672451 66.6357408,71.5177187 C66.9173006,71.4190906 67.2045562,71.3336299 67.4776998,71.2156331 C67.5955264,71.1647475 67.6841939,71.0464957 67.7862084,70.9589113 C67.6852141,70.8524678 67.5971416,70.6756848 67.4805902,70.6542772 C67.2406863,70.6102726 66.9798695,70.618173 66.7379253,70.6614131 C66.3420243,70.7320923 65.9542846,70.8479654 65.5058462,70.9589963 C65.7043493,70.249316 65.858136,69.6490526 66.0402317,69.0575391 C66.8011742,66.5864009 67.0197401,64.0437341 67.0572304,61.4766862 C67.0609709,61.222598 67.0297715,60.9682548 67.0272211,60.7139117 C67.0216103,60.1506019 66.9819097,59.5832995 67.0326619,59.024662 C67.1158037,58.1105048 67.288463,57.204503 67.3721149,56.2903458 C67.5328726,54.5315213 67.2922886,52.8181456 66.6597992,51.1682282 C66.4340924,50.5795182 66.368123,49.9842669 66.5028671,49.3802656 C66.7246634,48.3866793 67.0597807,47.4122069 67.2054063,46.4091061 C67.4100302,45.0000247 67.4799951,43.5716594 67.6182246,42.1525538 C67.6620908,41.7023987 67.7051069,41.2471466 67.8109469,40.8092244 C67.9660088,40.1673351 68.2076129,39.5460038 68.357404,38.90318 C68.5967979,37.8769725 68.704083,36.8436291 68.3725362,35.8054436 C68.2928799,35.5558577 68.2291209,35.2519881 68.3008711,35.016674 C68.378062,34.763775 68.598073,34.52999 68.8133234,34.3607677 C68.866881,34.3185471 69.1770048,34.5251478 69.3069032,34.6722828 C69.5682301,34.968252 69.8537004,35.0328147 70.2200172,34.9215289 C70.5564947,34.819248 70.6910687,34.6037274 70.7056058,34.2655377 C70.7467516,33.3179948 71.0623161,32.4858153 71.6795883,31.7448731 C71.9508617,31.4193411 72.2187345,30.9919528 72.2535894,30.5903897 C72.3187936,29.839933 72.7650217,29.5114277 73.3458237,29.2203857 C74.6340107,28.5750983 74.7611036,28.3424176 74.2316488,27.0040154 C73.8768087,26.1071882 74.0846631,25.4611363 74.7701149,24.8561156 C75.060686,24.5997336 75.3047554,24.2736919 75.5103995,23.9422982 C75.8002054,23.475068 76.0282076,22.9700346 76.2942102,22.4875982 C76.6448847,21.8513155 76.9940291,21.1953243 76.9763466,20.4607534 C76.958069,19.7062191 77.3106138,19.1803727 77.7706138,18.656905 C78.2639385,18.0955491 78.7517374,17.5236593 79.180708,16.9132867 C79.7115229,16.1579029 80.3860082,15.5820204 81.1221272,15.0395236 C81.8239864,14.5220874 82.5272907,13.973729 83.1035021,13.3265726 C84.0897264,12.2189822 84.9569339,11.0065622 85.9126389,9.87068305 C86.685058,8.95278803 87.4789002,8.04661624 88.3336959,7.20696105 C88.7499147,6.79809213 89.3272313,6.55300864 89.8897557,6.19697921 C89.9529197,6.46542421 89.983439,6.59539916 90.0398019,6.83487589" id="Fill-3" fill="#959595"></path>
                <g id="Group-7" transform="translate(89.500000, 62.000000)">
                    <mask id="mask-2" fill="white">
                        <use xlink:href="#path-1"></use>
                    </mask>
                    <g id="Clip-6"></g>
                    <path d="M22.0568021,15.19927 C23.4422239,15.2023257 24.8282398,15.1814451 26.212643,15.2189623 C26.4995395,15.2267714 26.8764944,15.3720021 27.0451523,15.5855618 C27.4422239,16.0886493 27.0109454,16.7431639 26.3028711,16.7503788 C25.0872106,16.7628562 23.8712955,16.7543682 22.6555501,16.7546228 C22.3194228,16.7547077 21.9833804,16.7546228 21.6178844,16.7546228 L21.6178844,20.9428881 L22.1250462,20.9428881 C24.0759427,20.9428881 26.0268393,20.9427183 27.9778207,20.9435671 C28.1189772,20.943652 28.2630196,20.9349093 28.4007809,20.9587607 C28.7946271,21.0269199 29.0412902,21.3068562 29.0502027,21.6827926 C29.0597942,22.0919172 28.8570992,22.3547926 28.4691947,22.4610631 C28.3224361,22.5011268 28.1619268,22.5016361 28.0075289,22.5018058 C25.660834,22.5040127 23.314139,22.5040976 20.9672743,22.5025698 C20.1424891,22.5019756 19.8454918,22.203705 19.8454069,21.3791745 C19.8448127,17.7742939 19.8450551,14.1694981 19.8458313,10.5646175 C19.8460859,9.73185358 20.1098101,9.45989602 20.9247491,9.45938674 C23.2856191,9.45785889 25.6464891,9.45921698 28.0073592,9.4595565 C28.0780647,9.4595565 28.1488552,9.45828329 28.2194759,9.46108435 C28.7386907,9.48154058 29.0473167,9.76546631 29.0517744,10.2255194 C29.0560594,10.6804796 28.7400488,10.9892753 28.2267756,10.9936891 C27.1100011,11.0031109 25.9931416,10.9976785 24.8762822,10.9979332 C23.80407,10.9981878 22.7318578,10.9979332 21.6071894,10.9979332 L21.6071894,15.1659968 C21.7615024,15.177965 21.9091947,15.1989305 22.0568021,15.19927 M16.562818,21.302782 C16.5625634,22.1022727 16.2631894,22.5071533 15.6906695,22.4979862 C15.127826,22.488904 14.8474653,22.1030366 14.846956,21.319079 C14.8452584,18.9305379 14.8467862,16.5420817 14.8471257,14.1536255 L14.8471257,13.6516414 C14.8069772,13.6406069 14.7669135,13.6294875 14.7269347,13.6184531 C14.4848552,14.1047342 14.2399745,14.5895724 14.0014599,15.0774663 C12.9785634,17.1696891 11.954818,19.2615724 10.9384573,21.3570207 C10.7580011,21.7291374 10.5123565,21.9927767 10.0751363,21.9929464 C9.63579416,21.9931162 9.39914695,21.7226016 9.21597454,21.3520127 C8.01482865,18.9228987 6.80434589,16.4983682 5.59598515,14.0728191 C5.54378355,13.9679915 5.48216021,13.8677475 5.32436711,13.7821878 L5.32436711,14.2659225 C5.32436711,16.6544637 5.32292414,19.0429199 5.32564032,21.4313761 C5.3261496,21.8693602 5.23566684,22.2483523 4.77917878,22.4333072 C4.25453156,22.6457634 3.68218143,22.3101454 3.61521061,21.7471321 C3.60366684,21.6493496 3.60731671,21.54953 3.60731671,21.450644 C3.60680743,17.7901666 3.60570398,14.1296891 3.60731671,10.4692117 C3.60757135,9.78439469 3.97255809,9.40633634 4.56281804,9.46295172 C4.93103024,9.49826207 5.13355544,9.73507905 5.28523714,10.0416679 C6.08668011,11.6609358 6.89007533,13.2791851 7.69202759,14.8982833 C8.44364562,16.4159491 9.19365093,17.9345485 9.94620265,19.4518748 C9.99492414,19.5499968 10.0589241,19.6406493 10.1595926,19.8069305 C10.2912424,19.5482992 10.398956,19.3459438 10.498521,19.1395141 C11.8836032,16.2664743 13.2674971,13.3928403 14.6522398,10.5196308 C14.750192,10.3162568 14.8433061,10.1096573 14.9551788,9.91400743 C15.1721337,9.53510027 15.5227756,9.37365729 15.9194228,9.47975809 C16.300452,9.58161485 16.5171523,9.83854854 16.5508499,10.2372329 C16.5602716,10.3496149 16.5629029,10.4628456 16.5629029,10.5757369 C16.5637067,14.1514186 16.5643459,17.7271003 16.562818,21.302782 M30.7783724,9.91791194 C30.6241443,9.45055915 30.4127066,8.99975809 30.1625634,8.55481379 C29.8927279,8.07498355 29.6161867,7.59710557 29.3103618,7.13985358 C27.364643,4.2304 24.628261,2.17102599 21.5818101,1.04567851 C21.5519321,1.03464403 21.5223088,1.02284562 21.4923459,1.0119809 C21.4881019,1.01036817 21.4837729,1.00901008 21.4795289,1.00748223 C19.9397942,0.446506101 18.2891204,0.116659947 16.5696934,0.0574981432 C16.5392212,0.0564795756 16.5089188,0.0548668435 16.4783618,0.0540180371 C16.4011204,0.0517262599 16.3237093,0.0508774536 16.246383,0.0496891247 C16.1837411,0.0487554377 16.1211841,0.0474822281 16.0583724,0.0473124668 C16.0425846,0.0472275862 16.0267968,0.0467183024 16.0108393,0.0467183024 C15.9678048,0.0467183024 15.9251098,0.0479915119 15.8820753,0.0483310345 C15.8031363,0.0489251989 15.7242822,0.049604244 15.6455979,0.0513018568 C15.5932265,0.0524901857 15.5408552,0.0544424403 15.4884838,0.0560551724 C15.4060647,0.0586864721 15.3238154,0.0615724138 15.2417358,0.0654769231 C15.187582,0.0680233422 15.133513,0.0712488064 15.0793592,0.0744742706 C15.0016085,0.0788880637 14.9238578,0.0835564987 14.8463618,0.0891586207 C14.7849082,0.0936572944 14.7235395,0.0987501326 14.6621708,0.103927851 C14.5939268,0.109614854 14.5255979,0.115471618 14.4576934,0.122092308 C14.3856297,0.12905252 14.3136509,0.136691777 14.241757,0.144670557 C14.1861602,0.150781963 14.1307332,0.156978249 14.075391,0.16368382 C13.9899162,0.174039257 13.9044414,0.185243501 13.8190515,0.19704191 C13.7789878,0.202559151 13.7389241,0.208076393 13.6988605,0.213848276 C13.5975979,0.228617507 13.4963353,0.244320424 13.3952424,0.26104191 C13.3724944,0.264776658 13.3498313,0.268511406 13.3271682,0.272331034 C13.2081655,0.292532626 13.0892477,0.313922546 12.9704149,0.336925199 C12.9668499,0.337604244 12.9632,0.338283289 12.9595501,0.338962334 C12.667391,0.39574748 12.3763353,0.461360212 12.0864679,0.535036605 C12.1000488,0.531556499 12.1135448,0.527651989 12.1272106,0.524256764 C12.1134599,0.527651989 12.1001337,0.531556499 12.0864679,0.535036605 C11.9744255,0.563471618 11.862383,0.592925199 11.7506801,0.623906631 C11.7474546,0.624840318 11.7441443,0.625604244 11.740834,0.626537931 C11.7258101,0.630697082 11.7108711,0.635025995 11.6959321,0.639270027 C5.03857401,2.50265464 0.137735809,8.56839469 0.037067374,15.7968297 C0.0363883289,15.8452966 0.0355395225,15.8937634 0.0352848806,15.9424 C0.0352,15.969392 0.034266313,15.9962992 0.034266313,16.0232912 C0.034266313,16.0562249 0.0352848806,16.0888191 0.0355395225,16.1216679 C0.0360488064,16.2121507 0.0368976127,16.3025485 0.038934748,16.3926069 C0.0395289125,16.4219756 0.0403777188,16.4512594 0.0412265252,16.4806281 C0.0444519894,16.5963204 0.0486960212,16.7119279 0.0542981432,16.827026 C0.0548923077,16.8387395 0.0554864721,16.8505379 0.0561655172,16.8622515 C0.0627013263,16.9895724 0.0707649867,17.1165538 0.080271618,17.2431109 L0.0815448276,17.2601719 C0.0912212202,17.3870684 0.102595225,17.5135406 0.11515756,17.6395883 L0.118128382,17.6691268 C0.12992679,17.7842249 0.14325305,17.8988987 0.157428117,18.0132329 C0.1605687,18.0378483 0.163454642,18.0624637 0.166595225,18.0869942 C0.178478515,18.1790897 0.191719894,18.2707607 0.205215915,18.3623469 C0.21251565,18.4122568 0.219645623,18.4621666 0.227539523,18.5120764 C0.236706631,18.5703045 0.246722546,18.628278 0.256398939,18.6863363 C0.270998408,18.7719809 0.285428117,18.8577103 0.301385676,18.94327 C0.304016976,18.9572753 0.306818037,18.9712806 0.309449337,18.9852859 C0.998001061,22.6582408 2.94321061,25.8877793 5.68213899,28.211217 C8.53158196,30.7493178 11.944208,32.0344955 15.8313167,31.9977422 C15.8911576,31.9984212 15.9508286,32.000034 16.0108393,32.000034 C17.6405475,32.000034 19.2128764,31.7553231 20.6940435,31.3018907 C25.4777464,29.9430366 28.8570143,26.6924477 30.9104467,21.8799703 C30.9488127,21.7900817 30.9738525,21.6917899 30.9898101,21.5910366 C31.6345634,19.8572647 31.9874971,17.9816573 31.9874971,16.0232912 C31.9874971,13.8607873 31.5569825,11.7990366 30.7783724,9.91791194" id="Fill-5" fill="#959595" mask="url(#mask-2)"></path>
                </g>
                <path d="M24.8313552,71.0244544 C24.3897576,70.9353961 24.0467468,71.1161321 23.8126243,71.5920112 C23.2410249,72.7536563 22.679216,73.9199487 22.1131504,75.0842132 C21.1169804,77.1334844 20.1206401,79.1826711 19.0858187,81.3113681 C18.9828048,81.1494745 18.916314,81.0629511 18.8684678,80.9672176 C18.1130609,79.4568592 17.3594419,77.9456559 16.606589,76.4341145 C15.8222361,74.859455 15.0526967,73.2771909 14.2424625,71.7157127 C14.1002012,71.441609 13.8277677,71.1454521 13.5487788,71.0482821 C12.973178,70.8480276 12.5020384,71.2937418 12.5015276,71.9594824 C12.4989735,75.6598816 12.5003357,79.3603653 12.5005911,83.0607644 C12.5005911,83.1170385 12.4984627,83.173735 12.5038263,83.2295021 C12.544521,83.6458963 12.8604587,83.9580229 13.2776224,83.9960459 C13.6975956,84.0343224 14.0700632,83.7920736 14.1769934,83.3835375 C14.2224557,83.2098146 14.2286706,83.0224034 14.228926,82.8412449 C14.2321612,80.4915075 14.2309693,78.1417701 14.2309693,75.7921172 L14.2309693,75.3201249 C14.3837874,75.4083383 14.4385295,75.5029733 14.4874824,75.6004812 C15.699641,78.0153647 16.9138429,80.4292343 18.1202123,82.8469061 C18.3100644,83.2275587 18.5518491,83.5076615 19.0182211,83.4939732 C19.4610958,83.4809609 19.6916426,83.2064348 19.871023,82.8403155 C21.0847992,80.3638347 22.3055565,77.8906492 23.5260584,75.4173793 C23.5701586,75.3280675 23.6353723,75.2489796 23.6907955,75.1650755 C23.7744837,75.3431922 23.7744837,75.4946082 23.7744837,75.6460243 C23.7751647,78.1083098 23.7715039,80.5705954 23.7793364,83.0327964 C23.7812094,83.6374467 24.1045538,83.9901313 24.6141747,83.9985808 C25.1390348,84.0072839 25.4941347,83.6404886 25.4952415,83.031698 C25.5017969,79.3454095 25.5009456,75.6590366 25.4965185,71.9726637 C25.4959226,71.4324835 25.2535419,71.1095414 24.8313552,71.0244544" id="Fill-8" fill="#959595"></path>
                <path d="M84.4969577,72.1876211 C84.4967956,72.0060987 84.4826911,71.8216199 84.4501857,71.6435607 C84.377069,71.2437722 84.1222142,71.0429066 83.7443092,71.0151165 C83.1708859,70.9729668 82.8435628,71.3426001 82.8429144,72.0377744 C82.8404015,74.8085039 82.8420227,77.579318 82.8420227,80.3500476 L82.8420227,80.9118463 C82.6675801,80.6854713 82.5660921,80.5621475 82.4731155,80.4321508 C80.3604307,77.4794765 78.2482323,74.5262953 76.1370066,71.5724384 C75.7816366,71.0752579 75.4537461,70.9124875 75.0515229,71.0432444 C74.6577301,71.1712139 74.5005534,71.4834933 74.5005534,72.1406568 C74.5004724,75.7131596 74.5004724,79.2856624 74.5011209,82.8580807 C74.5011209,82.9985515 74.4939875,83.1415564 74.5157118,83.2789863 C74.6073914,83.859706 75.174411,84.1548383 75.6866335,83.902447 C76.1412218,83.678437 76.1464097,83.2511118 76.1465718,82.8231109 C76.1475445,80.1226589 76.1460854,77.4222069 76.145518,74.721755 C76.145437,74.5845784 76.145518,74.4474864 76.145518,74.3103098 C76.1808605,74.2981464 76.216284,74.2858985 76.2517075,74.2737351 C76.3326061,74.3794894 76.4161797,74.483132 76.4939169,74.5913359 C78.6211926,77.5504298 80.7470902,80.5105374 82.8749333,83.4691245 C83.2136049,83.9398664 83.5427924,84.0856587 83.9324511,83.9534658 C84.3193538,83.8222865 84.4781517,83.5407536 84.49866,82.9471948 C84.5010918,82.8769172 84.4994706,82.8065551 84.4994706,82.7362774 C84.4993085,79.2200305 84.4997949,75.7037836 84.4969577,72.1876211" id="Fill-10" fill="#959595"></path>
                <path d="M39.8123567,78.0471569 C39.6493462,79.7351789 38.8886027,81.0857793 37.3692914,81.918241 C34.1584534,83.6773035 30.3236065,81.5195834 30.158253,77.8808972 C30.1525627,77.7567633 30.1574998,77.6321308 30.1574998,77.5078307 C30.1477092,75.1325854 31.5934649,73.1387153 33.7531029,72.6695987 C37.5122185,71.853173 40.1385451,74.6688695 39.8123567,78.0471569 M34.9612047,71.0000111 C31.1666084,70.9937076 28.5075626,73.6623378 28.5000156,77.4847322 C28.4925837,81.2905089 31.1405836,83.9895494 34.8923353,83.9999678 C38.7839179,84.0106538 41.4842184,81.3593891 41.4999337,77.5123175 C41.5154314,73.6967364 38.8141267,71.006337 34.9612047,71.0000111" id="Fill-12" fill="#959595"></path>
                <path d="M50.6010809,71.0036301 C48.4133323,71.0024462 46.2255026,71.0030381 44.037754,71.0032073 C43.4298974,71.0032073 42.8219597,70.9933129 42.2145897,71.0082813 C41.7824568,71.0188523 41.5026936,71.3302297 41.5,71.7600016 C41.4974227,72.182247 41.7827001,72.5063095 42.197966,72.5387834 C42.3725545,72.5524833 42.5488459,72.5438575 42.7244075,72.543942 C43.6942534,72.5441957 44.6640182,72.5440266 45.6711659,72.5440266 C45.679275,72.7333732 45.6911954,72.884157 45.6912765,73.0350253 C45.6928983,76.1052473 45.6928983,79.1754694 45.6938714,82.2456914 C45.6939524,82.5695002 45.6851136,82.8941547 45.7040077,83.2170333 C45.729308,83.649004 46.0211538,83.9527703 46.4214991,83.9950541 C46.8396032,84.0392828 47.2043496,83.7838045 47.2927386,83.3519184 C47.3371763,83.1344109 47.3403389,82.9048948 47.3405822,82.6808756 C47.3435014,79.455726 47.3486101,76.2306609 47.3348247,73.0055958 C47.3332029,72.6315539 47.4311606,72.5252526 47.7890953,72.5354007 C48.7203421,72.5617858 49.6526429,72.5454642 50.5844573,72.5435192 C51.1670136,72.5422507 51.4966476,72.2641928 51.5,71.7776762 C51.5033782,71.2749226 51.1919084,71.0039684 50.6010809,71.0036301" id="Fill-14" fill="#959595"></path>
                <path d="M54.470058,71.0002787 C53.8350343,71.0110975 53.5051354,71.3445348 53.5044499,71.9876589 C53.5023936,73.8170422 53.5036665,75.6464255 53.5035686,77.4758089 C53.5033728,79.3193073 53.4889782,81.1629748 53.519432,83.0060506 C53.5238385,83.2705184 53.6784572,83.5820646 53.8815473,83.7827187 C54.1426071,84.0405938 54.542912,84.0525958 54.9226532,83.9043451 C55.3764234,83.727188 55.4974549,83.3912996 55.4976508,83.003515 C55.499805,79.3306332 55.5019593,75.6577514 55.4968674,71.9848697 C55.496084,71.3228973 55.1316186,70.9889528 54.470058,71.0002787" id="Fill-16" fill="#959595"></path>
            </g>
        </g>
    </g>
</svg>