<?xml version="1.0" encoding="UTF-8"?>
<svg width="170px" height="69px" viewBox="0 0 170 69" version="1.1" xmlns="http://www.w3.org/2000/svg" xmlns:xlink="http://www.w3.org/1999/xlink">
    <title>logo-ief-principal</title>
    <defs>
        <path d="M38.354,0.906 L28.766,5.7 L28.766,29.672 L38.355,24.876 L38.355,0.906 L38.354,0.906 Z M14.383,12.893 L14.383,52.515 L14.383,52.759 L14.383,65.602 L19.178,68 L23.972,65.602 L23.972,52.759 L23.972,52.515 L23.972,46.452 L28.766,44.055 L28.766,63.205 L38.355,58.41 L38.355,29.672 L28.767,34.467 L28.767,34.464 L23.972,36.861 L23.972,8.099 L14.383,12.893 Z M0,20.087 L0,48.849 L9.589,44.054 L9.589,15.292 L0,20.087 Z M0.003,53.717 L0.003,58.41 L9.589,63.205 L9.589,48.849 L0.003,53.717 Z" id="path-1"></path>
        <linearGradient x1="50.0460735%" y1="-0.552449697%" x2="49.9664229%" y2="99.4879094%" id="linearGradient-3">
            <stop stop-color="#FF5D18" offset="0%"></stop>
            <stop stop-color="#FF1C23" offset="100%"></stop>
        </linearGradient>
        <polygon id="path-4" points="0 68 169.141 68 169.141 0.906 0 0.906"></polygon>
    </defs>
    <g id="Home-page" stroke="none" stroke-width="1" fill="none" fill-rule="evenodd">
        <g id="Desktop-HD" transform="translate(-150.000000, -41.000000)">
            <g id="logo-ief-principal" transform="translate(150.000000, 41.000000)">
                <g id="Group-3" transform="translate(0.000000, 0.094500)">
                    <mask id="mask-2" fill="white">
                        <use xlink:href="#path-1"></use>
                    </mask>
                    <g id="Clip-2"></g>
                    <path d="M38.354,0.906 L28.766,5.7 L28.766,29.672 L38.355,24.876 L38.355,0.906 L38.354,0.906 Z M14.383,12.893 L14.383,52.515 L14.383,52.759 L14.383,65.602 L19.178,68 L23.972,65.602 L23.972,52.759 L23.972,52.515 L23.972,46.452 L28.766,44.055 L28.766,63.205 L38.355,58.41 L38.355,29.672 L28.767,34.467 L28.767,34.464 L23.972,36.861 L23.972,8.099 L14.383,12.893 Z M0,20.087 L0,48.849 L9.589,44.054 L9.589,15.292 L0,20.087 Z M0.003,53.717 L0.003,58.41 L9.589,63.205 L9.589,48.849 L0.003,53.717 Z" id="Fill-1" fill="url(#linearGradient-3)" mask="url(#mask-2)"></path>
                </g>
                <polygon id="Fill-4" fill="#FFFFFF" points="47.944 17.4805 49.928 17.4805 49.928 8.1595 47.944 8.1595"></polygon>
                <polygon id="Fill-5" fill="#FFFFFF" points="58.2016 17.4811 53.7576 11.4021 53.7576 17.4811 51.7726 17.4811 51.7726 8.1601 53.8126 8.1601 58.1316 14.0151 58.1316 8.1601 60.1156 8.1601 60.1156 17.4811"></polygon>
                <g id="Group-42" transform="translate(0.000000, 0.094500)">
                    <path d="M61.3305,16.0731 L62.4065,14.5631 C63.0635,15.2491 64.0845,15.8211 65.3695,15.8211 C66.4595,15.8211 66.9905,15.3181 66.9905,14.7871 C66.9905,13.1381 61.6245,14.2701 61.6245,10.7621 C61.6245,9.2111 62.9665,7.9261 65.1605,7.9261 C66.6425,7.9261 67.8715,8.3731 68.7935,9.2251 L67.6895,10.6781 C66.9345,9.9791 65.9295,9.6581 64.9775,9.6581 C64.1265,9.6581 63.6505,10.0361 63.6505,10.5941 C63.6505,12.0761 69.0035,11.0841 69.0035,14.5631 C69.0035,16.2681 67.7875,17.5541 65.2715,17.5541 C63.4825,17.5541 62.1975,16.9531 61.3305,16.0731" id="Fill-6" fill="#FFFFFF"></path>
                    <polygon id="Fill-8" fill="#FFFFFF" points="72.3148 17.3866 72.3148 9.8126 69.5888 9.8126 69.5888 8.0656 77.0248 8.0656 77.0248 9.8126 74.3138 9.8126 74.3138 17.3866"></polygon>
                    <mask id="mask-5" fill="white">
                        <use xlink:href="#path-4"></use>
                    </mask>
                    <g id="Clip-11"></g>
                    <polygon id="Fill-10" fill="#FFFFFF" mask="url(#mask-5)" points="78.295 17.386 80.279 17.386 80.279 8.065 78.295 8.065"></polygon>
                    <polygon id="Fill-12" fill="#FFFFFF" mask="url(#mask-5)" points="84.2768 17.3866 84.2768 9.8126 81.5508 9.8126 81.5508 8.0656 88.9858 8.0656 88.9858 9.8126 86.2748 9.8126 86.2748 17.3866"></polygon>
                    <path d="M90.2572,13.6688 L90.2572,8.0648 L92.2692,8.0648 L92.2692,13.5998 C92.2692,14.8988 93.0242,15.7938 94.4632,15.7938 C95.9032,15.7938 96.6442,14.8988 96.6442,13.5998 L96.6442,8.0648 L98.6702,8.0648 L98.6702,13.6548 C98.6702,15.9758 97.3002,17.5548 94.4632,17.5548 C91.6262,17.5548 90.2572,15.9608 90.2572,13.6688" id="Fill-13" fill="#FFFFFF" mask="url(#mask-5)"></path>
                    <polygon id="Fill-14" fill="#FFFFFF" mask="url(#mask-5)" points="102.6518 17.3866 102.6518 9.8126 99.9268 9.8126 99.9268 8.0656 107.3618 8.0656 107.3618 9.8126 104.6508 9.8126 104.6508 17.3866"></polygon>
                    <path d="M115.5512,12.7333 C115.5512,10.9863 114.4332,9.6723 112.7132,9.6723 C110.9942,9.6723 109.8912,10.9863 109.8912,12.7333 C109.8912,14.4653 110.9942,15.7943 112.7132,15.7943 C114.4332,15.7943 115.5512,14.4653 115.5512,12.7333 M107.8502,12.7333 C107.8502,9.9233 109.9052,7.9113 112.7132,7.9113 C115.5362,7.9113 117.5912,9.9233 117.5912,12.7333 C117.5912,15.5423 115.5362,17.5543 112.7132,17.5543 C109.9052,17.5543 107.8502,15.5423 107.8502,12.7333" id="Fill-15" fill="#FFFFFF" mask="url(#mask-5)"></path>
                    <path d="M129.1615,12.7333 C129.1615,11.0843 128.1545,9.8123 126.2405,9.8123 L124.5495,9.8123 L124.5495,15.6393 L126.2405,15.6393 C128.0855,15.6393 129.1615,14.3123 129.1615,12.7333 L129.1615,12.7333 Z M122.5645,17.3863 L122.5645,8.0653 L126.2405,8.0653 C129.1615,8.0653 131.1875,9.9233 131.1875,12.7333 C131.1875,15.5423 129.1615,17.3863 126.2405,17.3863 L122.5645,17.3863 Z" id="Fill-16" fill="#FFFFFF" mask="url(#mask-5)"></path>
                    <polygon id="Fill-17" fill="#FFFFFF" mask="url(#mask-5)" points="132.5981 17.3866 132.5981 8.0656 139.1951 8.0656 139.1951 9.8126 134.5821 9.8126 134.5821 11.7826 139.0971 11.7826 139.0971 13.5296 134.5821 13.5296 134.5821 15.6396 139.1951 15.6396 139.1951 17.3866"></polygon>
                    <polygon id="Fill-18" fill="#FFFFFF" mask="url(#mask-5)" points="47.9438 34.1552 47.9438 24.8342 54.5408 24.8342 54.5408 26.5812 49.9278 26.5812 49.9278 28.5512 54.4428 28.5512 54.4428 30.2992 49.9278 30.2992 49.9278 32.4092 54.5408 32.4092 54.5408 34.1552"></polygon>
                    <polygon id="Fill-19" fill="#FFFFFF" mask="url(#mask-5)" points="64.1967 34.1552 64.1967 27.6292 61.5687 34.1552 60.7027 34.1552 58.0757 27.6292 58.0757 34.1552 56.0917 34.1552 56.0917 24.8342 58.8727 24.8342 61.1357 30.4662 63.3997 24.8342 66.1947 24.8342 66.1947 34.1552"></polygon>
                    <path d="M73.5033,27.8388 C73.5033,27.0568 72.9163,26.5808 72.1333,26.5808 L70.0233,26.5808 L70.0233,29.0968 L72.1333,29.0968 C72.9163,29.0968 73.5033,28.6078 73.5033,27.8388 L73.5033,27.8388 Z M68.0383,34.1548 L68.0383,24.8338 L72.3993,24.8338 C74.4253,24.8338 75.5293,26.2038 75.5293,27.8388 C75.5293,29.4598 74.4113,30.8438 72.3993,30.8438 L70.0233,30.8438 L70.0233,34.1548 L68.0383,34.1548 Z" id="Fill-20" fill="#FFFFFF" mask="url(#mask-5)"></path>
                    <path d="M82.2231,27.8388 C82.2231,27.0568 81.6211,26.5808 80.8261,26.5808 L78.7441,26.5808 L78.7441,29.0968 L80.8261,29.0968 C81.6211,29.0968 82.2231,28.6208 82.2231,27.8388 L82.2231,27.8388 Z M82.0281,34.1548 L80.1971,30.8438 L78.7441,30.8438 L78.7441,34.1548 L76.7581,34.1548 L76.7581,24.8338 L81.1191,24.8338 C83.0611,24.8338 84.2491,26.1058 84.2491,27.8388 C84.2491,29.4878 83.2151,30.3678 82.2091,30.6068 L84.3051,34.1548 L82.0281,34.1548 Z" id="Fill-21" fill="#FFFFFF" mask="url(#mask-5)"></path>
                    <polygon id="Fill-22" fill="#FFFFFF" mask="url(#mask-5)" points="85.7436 34.1552 85.7436 24.8342 92.3406 24.8342 92.3406 26.5812 87.7276 26.5812 87.7276 28.5512 92.2426 28.5512 92.2426 30.2992 87.7276 30.2992 87.7276 32.4092 92.3406 32.4092 92.3406 34.1552"></polygon>
                    <polygon id="Fill-23" fill="#FFFFFF" mask="url(#mask-5)" points="100.3197 34.1552 95.8757 28.0762 95.8757 34.1552 93.8907 34.1552 93.8907 24.8342 95.9307 24.8342 100.2497 30.6892 100.2497 24.8342 102.2337 24.8342 102.2337 34.1552"></polygon>
                    <path d="M110.6742,29.5018 C110.6742,27.8528 109.6672,26.5808 107.7532,26.5808 L106.0622,26.5808 L106.0622,32.4088 L107.7532,32.4088 C109.5982,32.4088 110.6742,31.0808 110.6742,29.5018 L110.6742,29.5018 Z M104.0772,34.1548 L104.0772,24.8338 L107.7532,24.8338 C110.6742,24.8338 112.7002,26.6928 112.7002,29.5018 C112.7002,32.3108 110.6742,34.1548 107.7532,34.1548 L104.0772,34.1548 Z" id="Fill-24" fill="#FFFFFF" mask="url(#mask-5)"></path>
                    <polygon id="Fill-25" fill="#FFFFFF" mask="url(#mask-5)" points="114.111 34.155 116.095 34.155 116.095 24.834 114.111 24.834"></polygon>
                    <polygon id="Fill-26" fill="#FFFFFF" mask="url(#mask-5)" points="126.0453 34.1552 126.0453 27.6292 123.4183 34.1552 122.5513 34.1552 119.9243 27.6292 119.9243 34.1552 117.9403 34.1552 117.9403 24.8342 120.7213 24.8342 122.9843 30.4662 125.2483 24.8342 128.0433 24.8342 128.0433 34.1552"></polygon>
                    <polygon id="Fill-27" fill="#FFFFFF" mask="url(#mask-5)" points="129.887 34.155 131.871 34.155 131.871 24.834 129.887 24.834"></polygon>
                    <polygon id="Fill-28" fill="#FFFFFF" mask="url(#mask-5)" points="133.7162 34.1552 133.7162 24.8342 140.3132 24.8342 140.3132 26.5812 135.7002 26.5812 135.7002 28.5512 140.2142 28.5512 140.2142 30.2992 135.7002 30.2992 135.7002 32.4092 140.3132 32.4092 140.3132 34.1552"></polygon>
                    <polygon id="Fill-29" fill="#FFFFFF" mask="url(#mask-5)" points="148.2914 34.1552 143.8474 28.0762 143.8474 34.1552 141.8624 34.1552 141.8624 24.8342 143.9034 24.8342 148.2224 30.6892 148.2224 24.8342 150.2064 24.8342 150.2064 34.1552"></polygon>
                    <polygon id="Fill-30" fill="#FFFFFF" mask="url(#mask-5)" points="154.2025 34.1552 154.2025 26.5812 151.4765 26.5812 151.4765 24.8342 158.9115 24.8342 158.9115 26.5812 156.2005 26.5812 156.2005 34.1552"></polygon>
                    <path d="M167.101,29.5018 C167.101,27.7548 165.983,26.4408 164.264,26.4408 C162.545,26.4408 161.441,27.7548 161.441,29.5018 C161.441,31.2338 162.545,32.5628 164.264,32.5628 C165.983,32.5628 167.101,31.2338 167.101,29.5018 M159.401,29.5018 C159.401,26.6928 161.455,24.6808 164.264,24.6808 C167.086,24.6808 169.141,26.6928 169.141,29.5018 C169.141,32.3108 167.086,34.3228 164.264,34.3228 C161.455,34.3228 159.401,32.3108 159.401,29.5018" id="Fill-31" fill="#FFFFFF" mask="url(#mask-5)"></path>
                    <polygon id="Fill-32" fill="#FFFFFF" mask="url(#mask-5)" points="47.9438 50.9247 47.9438 41.6037 54.5408 41.6037 54.5408 43.3507 49.9278 43.3507 49.9278 45.3207 54.4428 45.3207 54.4428 47.0677 49.9278 47.0677 49.9278 49.1777 54.5408 49.1777 54.5408 50.9247"></polygon>
                    <polygon id="Fill-33" fill="#FFFFFF" mask="url(#mask-5)" points="62.5199 50.9247 58.0759 44.8457 58.0759 50.9247 56.0909 50.9247 56.0909 41.6037 58.1309 41.6037 62.4499 47.4587 62.4499 41.6037 64.4339 41.6037 64.4339 50.9247"></polygon>
                    <polygon id="Fill-34" fill="#FFFFFF" mask="url(#mask-5)" points="69.8559 50.9247 69.8559 41.6037 76.4519 41.6037 76.4519 43.3507 71.8399 43.3507 71.8399 45.3207 76.3539 45.3207 76.3539 47.0677 71.8399 47.0677 71.8399 50.9247"></polygon>
                    <polygon id="Fill-35" fill="#FFFFFF" mask="url(#mask-5)" points="77.834 50.924 79.818 50.924 79.818 41.603 77.834 41.603"></polygon>
                    <polygon id="Fill-36" fill="#FFFFFF" mask="url(#mask-5)" points="83.8158 50.9247 83.8158 43.3507 81.0898 43.3507 81.0898 41.6037 88.5248 41.6037 88.5248 43.3507 85.8138 43.3507 85.8138 50.9247"></polygon>
                    <polygon id="Fill-37" fill="#FFFFFF" mask="url(#mask-5)" points="96.225 50.9247 91.781 44.8457 91.781 50.9247 89.796 50.9247 89.796 41.6037 91.836 41.6037 96.155 47.4587 96.155 41.6037 98.139 41.6037 98.139 50.9247"></polygon>
                    <polygon id="Fill-38" fill="#FFFFFF" mask="url(#mask-5)" points="99.9828 50.9247 99.9828 41.6037 106.5798 41.6037 106.5798 43.3507 101.9668 43.3507 101.9668 45.3207 106.4818 45.3207 106.4818 47.0677 101.9668 47.0677 101.9668 49.1777 106.5798 49.1777 106.5798 50.9247"></polygon>
                    <path d="M107.5014,49.6112 L108.5774,48.1012 C109.2334,48.7862 110.2544,49.3592 111.5394,49.3592 C112.6304,49.3592 113.1604,48.8562 113.1604,48.3252 C113.1604,46.6762 107.7944,47.8082 107.7944,44.3002 C107.7944,42.7492 109.1364,41.4642 111.3304,41.4642 C112.8124,41.4642 114.0414,41.9112 114.9634,42.7632 L113.8594,44.2162 C113.1054,43.5172 112.0994,43.1962 111.1484,43.1962 C110.2964,43.1962 109.8204,43.5732 109.8204,44.1322 C109.8204,45.6142 115.1734,44.6222 115.1734,48.1012 C115.1734,49.8062 113.9574,51.0922 111.4414,51.0922 C109.6524,51.0922 108.3674,50.4912 107.5014,49.6112" id="Fill-39" fill="#FFFFFF" mask="url(#mask-5)"></path>
                    <path d="M115.8852,49.6112 L116.9612,48.1012 C117.6182,48.7862 118.6382,49.3592 119.9242,49.3592 C121.0142,49.3592 121.5452,48.8562 121.5452,48.3252 C121.5452,46.6762 116.1792,47.8082 116.1792,44.3002 C116.1792,42.7492 117.5212,41.4642 119.7142,41.4642 C121.1962,41.4642 122.4262,41.9112 123.3482,42.7632 L122.2442,44.2162 C121.4892,43.5172 120.4832,43.1962 119.5322,43.1962 C118.6802,43.1962 118.2052,43.5732 118.2052,44.1322 C118.2052,45.6142 123.5582,44.6222 123.5582,48.1012 C123.5582,49.8062 122.3422,51.0922 119.8262,51.0922 C118.0372,51.0922 116.7512,50.4912 115.8852,49.6112" id="Fill-40" fill="#FFFFFF" mask="url(#mask-5)"></path>
                    <path d="M128.6762,43.0038 L127.9232,43.0038 L127.9232,43.9998 L128.6762,43.9998 C128.9192,43.9998 129.1852,43.8028 129.1852,43.5138 C129.1852,43.2008 128.9192,43.0038 128.6762,43.0038 L128.6762,43.0038 Z M129.1392,45.4708 L128.4092,44.3578 L127.9232,44.3578 L127.9232,45.4708 L127.5302,45.4708 L127.5302,42.6568 L128.6762,42.6568 C129.1512,42.6568 129.5902,42.9918 129.5902,43.5138 C129.5902,44.1388 129.0342,44.3478 128.8722,44.3478 L129.6252,45.4708 L129.1392,45.4708 Z M128.4672,41.9738 C127.3092,41.9738 126.3832,42.8998 126.3832,44.0578 C126.3832,45.2038 127.3092,46.1428 128.4672,46.1428 C129.6132,46.1428 130.5522,45.2038 130.5522,44.0578 C130.5522,42.8998 129.6132,41.9738 128.4672,41.9738 L128.4672,41.9738 Z M128.4672,46.5128 C127.1132,46.5128 126.0122,45.4128 126.0122,44.0578 C126.0122,42.6918 127.1132,41.6038 128.4672,41.6038 C129.8332,41.6038 130.9222,42.6918 130.9222,44.0578 C130.9222,45.4128 129.8332,46.5128 128.4672,46.5128 L128.4672,46.5128 Z" id="Fill-41" fill="#FFFFFF" mask="url(#mask-5)"></path>
                </g>
            </g>
        </g>
    </g>
</svg>