<?xml version="1.0" encoding="UTF-8"?>
<svg width="18px" height="19px" viewBox="0 0 18 19" version="1.1" xmlns="http://www.w3.org/2000/svg" xmlns:xlink="http://www.w3.org/1999/xlink">
    <title>icon-users</title>
    <defs>
        <polygon id="path-1" points="0.3337 0.0643 13 0.0643 13 17.5483 0.3337 17.5483"></polygon>
    </defs>
    <g id="Home-page" stroke="none" stroke-width="1" fill="none" fill-rule="evenodd">
        <g id="Desktop-HD" transform="translate(-744.000000, -1200.000000)">
            <g id="clase-gratis" transform="translate(137.000000, 1036.000000)">
                <g id="icon-users" transform="translate(607.000000, 164.000000)">
                    <path d="M7.9102,9.1364 L4.7572,9.1364 C2.1342,9.1364 0.0002,11.2704 0.0002,13.8934 L0.0002,17.7494 L0.0102,17.8104 L0.2762,17.8934 C2.7792,18.6754 4.9542,18.9354 6.7442,18.9354 C10.2402,18.9354 12.2662,17.9394 12.3922,17.8754 L12.6402,17.7494 L12.6672,17.7494 L12.6672,13.8934 C12.6672,11.2704 10.5332,9.1364 7.9102,9.1364 M2.6182,5.1674 C2.6182,3.1154 4.2812,1.4514 6.3332,1.4514 C8.3862,1.4514 10.0492,3.1154 10.0492,5.1674 C10.0492,7.2194 8.3862,8.8834 6.3332,8.8834 C4.2812,8.8834 2.6182,7.2194 2.6182,5.1674" id="Fill-1" fill="#7A7A7A"></path>
                    <g id="Group-5" transform="translate(5.000000, 0.000000)">
                        <mask id="mask-2" fill="white">
                            <use xlink:href="#path-1"></use>
                        </mask>
                        <g id="Clip-4"></g>
                        <path d="M8.2437,7.7483 L5.0907,7.7483 C2.4677,7.7483 0.3337,9.8823 0.3337,12.5053 L0.3337,16.3623 L0.3437,16.4223 L0.6097,16.5053 C3.1127,17.2873 5.2877,17.5483 7.0777,17.5483 C10.5737,17.5483 12.5997,16.5513 12.7257,16.4873 L12.9737,16.3613 L13.0007,16.3613 L13.0007,12.5053 C13.0007,9.8823 10.8667,7.7483 8.2437,7.7483 M2.9517,3.7793 C2.9517,1.7273 4.6147,0.0643 6.6667,0.0643 C8.7197,0.0643 10.3827,1.7273 10.3827,3.7793 C10.3827,5.8313 8.7197,7.4953 6.6667,7.4953 C4.6147,7.4953 2.9517,5.8313 2.9517,3.7793" id="Fill-3" fill="#7A7A7A" mask="url(#mask-2)"></path>
                    </g>
                </g>
            </g>
        </g>
    </g>
</svg>