<?xml version="1.0" encoding="UTF-8"?>
<svg width="26px" height="26px" viewBox="0 0 26 26" version="1.1" xmlns="http://www.w3.org/2000/svg" xmlns:xlink="http://www.w3.org/1999/xlink">
    <title>icon-lineal-play</title>
    <g id="Home-page" stroke="none" stroke-width="1" fill="none" fill-rule="evenodd">
        <g id="Desktop-ventas" transform="translate(-172.000000, -1208.000000)" fill="#FF451D" fill-rule="nonzero">
            <g id="icon-lineal-play" transform="translate(172.000000, 1208.000000)">
                <path d="M13,26 C9.5275498,26 6.26299602,24.6477928 3.80765339,22.1923984 C1.35220717,19.737004 0,16.4723984 0,13 C0,9.52760159 1.35220717,6.26299602 3.80765339,3.80760159 C6.26299602,1.35220717 9.5275498,0 13,0 C16.4724502,0 19.737004,1.35220717 22.1923466,3.80760159 C24.6477928,6.26299602 26,9.52760159 26,13 C26,16.4723984 24.6477928,19.737004 22.1923466,22.1923984 C19.737004,24.6477928 16.4724502,26 13,26 Z M13,1.03585657 C6.40294024,1.03585657 1.03585657,6.40294024 1.03585657,13 C1.03585657,19.5970598 6.40294024,24.9641434 13,24.9641434 C19.5970598,24.9641434 24.9641434,19.5970598 24.9641434,13 C24.9641434,6.40294024 19.5970598,1.03585657 13,1.03585657 Z" id="Shape"></path>
                <path d="M10.7339041,21 C10.4518785,21 10.1710557,20.9303027 9.92175838,20.7985077 C9.3531962,20.4977693 9,19.9121418 9,19.2702165 L9,7.73036018 C9,7.08843486 9.3531962,6.50280737 9.92170826,6.20211893 C10.4902203,5.90148049 11.1743093,5.93832907 11.7069855,6.29861522 L20.2389767,12.0684934 C20.7155184,12.390731 21,12.9260104 21,13.5002883 C21,14.0745163 20.7155184,14.6097957 20.2389767,14.9320833 L11.7069855,20.7020115 C11.418795,20.896954 11.0822888,21 10.7339041,21 Z M10.7341046,7.00028825 C10.6167735,7.00028825 10.4991417,7.02848716 10.3912833,7.08558497 C10.1514086,7.21248009 10.0024016,7.45952059 10.0024016,7.73036018 L10.0024016,19.2702165 C10.0024016,19.5410561 10.1514086,19.7881466 10.3912833,19.9149917 C10.4964853,19.9705896 10.6149692,20.0000384 10.7339041,20.0000384 C10.8809565,20.0000384 11.0228965,19.9565901 11.1444377,19.8743433 L19.6764791,14.1044151 C19.8775107,13.9684203 19.9975483,13.742629 19.9975483,13.5002882 C19.9975483,13.2579477 19.8775107,13.0321563 19.6764791,12.8962116 L11.1444878,7.1262834 C11.0207915,7.04263662 10.8777488,7.00028825 10.7341046,7.00028825 Z" id="Shape"></path>
                <path d="M13.5459545,4 C13.5198644,4 13.4934106,3.99787177 13.4668204,3.99339814 C12.5039389,3.83191322 11.4930134,3.82709212 10.5286774,3.97932576 C10.2808208,4.01854601 10.0470094,3.85827722 10.0061469,3.62160929 C9.96523897,3.38494136 10.1328251,3.16139028 10.3804998,3.12230033 C11.4455147,2.95417011 12.5606646,2.95942554 13.6239977,3.13784944 C13.8712179,3.17932822 14.0364859,3.40448633 13.9930781,3.64076336 C13.9543519,3.85158849 13.7624938,4 13.5459545,4 Z" id="Path"></path>
                <path d="M22.3956858,11 C22.1491617,11 21.9176828,10.8637288 21.8280761,10.6441567 C20.8389585,8.21819345 18.8843486,6.22146286 16.3244253,5.02172382 C16.0286568,4.88312365 15.9142768,4.55587778 16.0688982,4.29080971 C16.22358,4.02568748 16.5885928,3.9231591 16.8843009,4.06175927 C19.7115941,5.38677465 21.8704323,7.59235333 22.9631142,10.2722814 C23.0776754,10.5532189 22.916468,10.8642163 22.6029957,10.9669071 C22.5345973,10.9893301 22.4645071,11 22.3956858,11 Z" id="Path"></path>
            </g>
        </g>
    </g>
</svg>