<?xml version="1.0" encoding="UTF-8"?>
<svg width="27px" height="27px" viewBox="0 0 27 27" version="1.1" xmlns="http://www.w3.org/2000/svg" xmlns:xlink="http://www.w3.org/1999/xlink">
    <title>icon-lineal-chart-bars</title>
    <g id="Home-page" stroke="none" stroke-width="1" fill="none" fill-rule="evenodd">
        <g id="Desktop-ventas" transform="translate(-172.000000, -1303.000000)" fill="#FF451D" fill-rule="nonzero">
            <g id="icon-lineal-chart-bars" transform="translate(172.000000, 1303.000000)">
                <path d="M26.443067,25.9598901 L25.2215459,25.9598901 L25.2215459,9.39801175 C25.2215459,8.62713428 24.5498847,8 23.7243986,8 L20.9940903,8 C20.1685486,8 19.4969431,8.62718628 19.4969431,9.39801175 L19.4969431,25.9598901 L16.3952718,25.9598901 L16.3952718,16.9018328 C16.3952718,16.1309553 15.7236664,15.503821 14.8981246,15.503821 L12.1678163,15.503821 C11.3422745,15.503821 10.670669,16.1310073 10.670669,16.9018328 L10.670669,25.9598901 L7.56899781,25.9598901 L7.56899781,21.2687863 C7.56899781,20.4979088 6.89733662,19.8707746 6.07185054,19.8707746 L3.34148656,19.8707746 C2.51594479,19.8707746 1.84433929,20.4979608 1.84433929,21.2687863 L1.84433929,25.9598901 L0.556932991,25.9598901 C0.2493389,25.9598901 0,26.1927187 0,26.479945 C0,26.7671714 0.2493389,27 0.556932991,27 L26.443067,27 C26.7506611,27 27,26.7671714 27,26.479945 C27,26.1927187 26.7506611,25.9598901 26.443067,25.9598901 Z M6.45502044,25.9598901 L2.95814958,25.9598901 L2.95814958,21.2687863 C2.95814958,21.0714254 3.13007479,20.9108845 3.34143086,20.9108845 L6.07173916,20.9108845 C6.28309523,20.9108845 6.45502044,21.0714254 6.45502044,21.2687863 L6.45502044,25.9598901 Z M15.2813502,25.9598901 L11.7844793,25.9598901 L11.7844793,16.9018328 C11.7844793,16.7044719 11.9564045,16.543931 12.1677606,16.543931 L14.8980689,16.543931 C15.1093693,16.543931 15.2813502,16.7044719 15.2813502,16.9018328 L15.2813502,25.9598901 Z M24.1076799,25.9598901 L20.610809,25.9598901 L20.610809,9.39801175 C20.610809,9.20065089 20.7827343,9.04010992 20.9940903,9.04010992 L23.7243986,9.04010992 C23.9357547,9.04010992 24.1076799,9.20065089 24.1076799,9.39801175 L24.1076799,25.9598901 Z" id="Shape"></path>
                <path d="M25.9986925,0.566558197 C26.0063195,0.419531065 25.9540205,0.270025645 25.840488,0.157748421 C25.7269556,0.045471198 25.5757787,-0.00630347176 25.4271079,0.00129301985 C25.4183369,0.000915889059 25.4096749,0 25.4007405,0 L22.1048132,0 C21.8039305,0 21.5600318,0.241202077 21.5600318,0.53875827 C21.5600318,0.836314462 21.8039305,1.07751654 22.1048132,1.07751654 L24.139953,1.07751654 L18.7544078,6.40357304 L16.7234628,4.39508221 C16.6213163,4.29406504 16.482724,4.23727992 16.3382479,4.23727992 C16.1937719,4.23727992 16.0551795,4.29406504 15.953033,4.39508221 L6.15955284,14.0803396 C5.94681572,14.2907247 5.94681572,14.6318665 6.15955284,14.8423055 C6.26594864,14.9474172 6.4053582,15 6.54476775,15 C6.6841773,15 6.82364133,14.9474172 6.92998266,14.8421977 L16.3382479,5.53789626 L18.3691929,7.54638709 C18.58193,7.75677219 18.9268856,7.75677219 19.1396772,7.54638709 L24.9104373,1.83948236 L24.9104373,3.66102407 C24.9104373,3.95858026 25.1543359,4.19978234 25.4552186,4.19978234 C25.7561014,4.19978234 26,3.95858026 26,3.66102407 L26,0.592634097 C26,0.583852337 25.9990739,0.575286081 25.9986925,0.566558197 Z" id="Path"></path>
                <circle id="Oval" cx="4.5" cy="15.5" r="1"></circle>
            </g>
        </g>
    </g>
</svg>