<?xml version="1.0" encoding="UTF-8"?>
<svg width="26px" height="26px" viewBox="0 0 26 26" version="1.1" xmlns="http://www.w3.org/2000/svg" xmlns:xlink="http://www.w3.org/1999/xlink">
    <title>icon-lineal-aim</title>
    <g id="Home-page" stroke="none" stroke-width="1" fill="none" fill-rule="evenodd">
        <g id="Desktop-ventas" transform="translate(-173.000000, -1400.000000)" fill="#FF451D" fill-rule="nonzero">
            <g id="icon-lineal-aim" transform="translate(173.000000, 1400.000000)">
                <path d="M25.4652532,2.15165234 L23.7536462,2.15165234 L23.7536462,0.5078125 C23.7536462,0.227347656 23.514264,0 23.2189528,0 C22.9236417,0 22.6842594,0.227347656 22.6842594,0.5078125 L22.6842594,2.44953516 L20.4489203,4.57828516 C18.193958,2.62904687 15.2952782,1.56096484 12.227475,1.56096484 C8.96140748,1.56096484 5.89077037,2.76889844 3.58132275,4.96224219 C1.27187513,7.15558594 0,10.0718516 0,13.1737227 C0,16.2755937 1.27187513,19.1918594 3.58132275,21.3852031 C3.94058323,21.7264023 4.31829063,22.0436836 4.7122527,22.3363359 L1.76748242,25.1330625 C1.55868465,25.3313633 1.55868465,25.6529102 1.76748242,25.8512617 C1.87190803,25.9503867 2.00873607,26 2.1455641,26 C2.28239214,26 2.41927364,25.9503867 2.52364579,25.8512617 L5.59556616,22.9337266 C7.55409452,24.139375 9.83825114,24.7864805 12.2274215,24.7864805 C14.6282483,24.7864805 16.9229918,24.1330273 18.887883,22.9160547 L21.9784642,25.8512617 C22.0828898,25.9503867 22.2197178,26 22.3565459,26 C22.4933739,26 22.6302554,25.9503867 22.7346276,25.8512617 C22.9434253,25.6529609 22.9434788,25.3314141 22.7346276,25.1330625 L19.7688438,22.3163789 C20.1532884,22.0291602 20.5223337,21.7187344 20.8735738,21.3852031 C23.1830214,19.1918594 24.4548966,16.2755938 24.4548966,13.1737227 C24.4548966,11.4070938 24.047781,9.71049219 23.2448855,8.13099219 C23.1165056,7.87840625 22.7967589,7.77247656 22.5309094,7.89445313 C22.2649529,8.01637891 22.1534693,8.31994922 22.2818492,8.57253516 C23.0141653,10.0131992 23.3855098,11.5612656 23.3855098,13.1737227 C23.3855098,19.0170195 18.3799778,23.7709063 12.2273681,23.7709063 C6.07475836,23.7709063 1.06922634,19.0170703 1.06922634,13.1737227 C1.06922634,7.33042578 6.07475836,2.57653906 12.2273681,2.57653906 C15.0101797,2.57653906 17.6407107,3.53925 19.6931312,5.29790625 L17.816411,7.08515234 C16.2670835,5.79911719 14.3025665,5.096 12.2274215,5.096 C7.53757249,5.096 3.72210751,8.71964844 3.72210751,13.1737227 C3.72210751,17.6277969 7.53767943,21.2514453 12.2275285,21.2514453 C16.9173775,21.2514453 20.7328425,17.6277969 20.7328425,13.1737227 C20.7328425,12.4553711 20.633443,11.7428086 20.4373175,11.0557383 C20.0931888,9.84988672 19.453856,8.73371484 18.576745,7.79939063 L20.8372147,5.64672266 C20.8379098,5.6460625 20.8387118,5.64550391 20.8394069,5.64484375 C20.8400485,5.64423438 20.8405298,5.64357422 20.8411714,5.64301563 L23.440904,3.16727734 L25.4653066,3.16727734 C25.7606178,3.16727734 26,2.93992969 26,2.65946484 C26,2.379 25.7605643,2.15165234 25.4652532,2.15165234 Z M19.4051989,11.3214258 C19.5766216,11.9219141 19.6635092,12.5451016 19.6635092,13.1737227 C19.6635092,17.0677812 16.3277712,20.2358203 12.227582,20.2358203 C8.12739275,20.2358203 4.79165467,17.0677305 4.79165467,13.1737227 C4.79165467,9.27971484 8.12739275,6.111625 12.227582,6.111625 C14.0176819,6.111625 15.7138897,6.70977734 17.0598733,7.80578906 L14.8523917,9.90798047 C14.1237116,9.37843359 13.2138773,9.06282812 12.227582,9.06282812 C9.84087114,9.06282812 7.89907868,10.9069492 7.89907868,13.1737227 C7.89907868,15.4404961 9.84081767,17.2846172 12.227582,17.2846172 C14.6143462,17.2846172 16.5560852,15.4404961 16.5560852,13.1737227 C16.5560852,12.2090313 16.2035084,11.3215781 15.6154526,10.6195781 L17.8201004,8.52007813 C18.5655699,9.32780469 19.1099947,10.2869102 19.4051989,11.3214258 Z M11.9214165,13.4182344 C12.0257887,13.5170547 12.1624028,13.5664648 12.299017,13.5664648 C12.4360589,13.5664648 12.5731543,13.51675 12.6776334,13.4172695 L14.8543701,11.3443281 C15.2514334,11.8572187 15.486645,12.48975 15.486645,13.1737227 C15.486645,14.8804297 14.0246329,16.2689922 12.2275285,16.2689922 C10.4304241,16.2689922 8.96841196,14.8804297 8.96841196,13.1737227 C8.96841196,11.4670156 10.4304241,10.0784531 12.2275285,10.0784531 C12.9191544,10.0784531 13.5606795,10.2847266 14.0887961,10.6350664 L11.9204006,12.7000352 C11.7118702,12.8986406 11.7122979,13.2201367 11.9214165,13.4182344 Z" id="Shape"></path>
                <circle id="Oval" cx="22" cy="8" r="1"></circle>
            </g>
        </g>
    </g>
</svg>